<svg width="893" height="892" xmlns="http://www.w3.org/2000/svg" xmlns:xlink="http://www.w3.org/1999/xlink" xml:space="preserve" overflow="hidden"><defs><clipPath id="clip0"><rect x="228" y="791" width="893" height="892"/></clipPath></defs><g clip-path="url(#clip0)" transform="translate(-228 -791)"><path d="M674.5 791C921.095 791 1121 990.681 1121 1237 1121 1298.58 1108.51 1357.24 1085.91 1410.6L1081.56 1419.63 1067.03 1411.75C1047.59 1403.54 1026.22 1399 1003.78 1399 914.048 1399 841.302 1471.64 841.302 1561.25 841.302 1583.65 845.849 1604.99 854.071 1624.4L863.019 1640.87 848.298 1647.95C794.88 1670.52 736.149 1683 674.5 1683 427.905 1683 228 1483.32 228 1237 228 990.681 427.905 791 674.5 791Z" fill-rule="evenodd"/></g></svg>