<?xml version="1.0" encoding="utf-8"?>
<svg viewBox="0 0 500 500" xmlns="http://www.w3.org/2000/svg">
  <path d="M 300 349.999 L 100 349.999 L 100 300 L 300 300 L 300 349.999 Z M 400 249.999 L 100 249.999 L 100 200 L 400 200 L 400 249.999 Z M 400 149.999 L 100 149.999 L 100 100 L 400 100 L 400 149.999 Z M 444.448 0 L 55.552 0 C 24.698 0 0 24.699 0 55.549 L 0 444.451 C 0 475.149 24.848 500 55.552 500 L 444.448 500 C 475.152 500 500 475.149 500 444.451 L 500 55.549 C 500 24.699 475.002 0 444.448 0 Z" style="fill: oklab(0 -0.004 -0.015);"/>
</svg>