<svg width="975" height="259" xmlns="http://www.w3.org/2000/svg" xmlns:xlink="http://www.w3.org/1999/xlink" xml:space="preserve" overflow="hidden"><defs><clipPath id="clip0"><rect x="2923" y="1040" width="975" height="259"/></clipPath></defs><g clip-path="url(#clip0)" transform="translate(-2923 -1040)"><path d="M0 0 931.833 0C955.674-7.75817e-15 975 19.3265 975 43.1671L975 259 0 259Z" fill="#5865F2" fill-rule="evenodd" transform="matrix(-1 0 0 1 3898 1040)"/><g><g><g><path d="M237.761 28.1111 275.753 28.1111C284.91 28.1111 292.657 29.5399 298.994 32.3973 304.827 34.8501 309.781 39.0131 313.202 44.3376 316.404 49.5976 318.045 55.6596 317.934 61.8166 318.005 68.0019 316.299 74.0776 313.021 79.3234 309.364 84.8649 304.136 89.1876 298.005 91.7368 291.288 94.7984 282.962 96.3246 273.026 96.3153L237.761 96.3153ZM272.636 78.9616C278.805 78.9616 283.546 77.4214 286.858 74.3413 290.255 71.0465 292.067 66.4459 291.827 61.7192 292.035 57.3362 290.435 53.0598 287.401 49.8902 284.433 46.94 279.966 45.4602 274 45.4509L262.115 45.4509 262.115 78.9616Z" fill="#FFFFFF" transform="matrix(1 0 0 1.00673 3056.56 1102)"/><path d="M374.824 96.204C369.811 94.948 365.017 92.9449 360.601 90.2617L360.601 74.0908C364.456 76.8948 368.797 78.9614 373.404 80.1862 378.445 81.724 383.68 82.5254 388.949 82.5659 390.768 82.663 392.584 82.3491 394.265 81.6474 395.462 81.0351 396.06 80.2558 396.06 79.4486 396.087 78.5371 395.733 77.6555 395.086 77.0133 393.974 76.1584 392.67 75.5896 391.287 75.3572L379.597 72.727C372.899 71.1684 368.144 69.0113 365.333 66.2559 362.48 63.3781 360.965 59.4351 361.158 55.3872 361.111 51.7588 362.433 48.2459 364.86 45.5483 367.738 42.5044 371.366 40.2725 375.381 39.0772 380.546 37.4534 385.942 36.6779 391.357 36.781 396.411 36.7335 401.452 37.3226 406.358 38.5345 410.322 39.4735 414.128 40.9831 417.659 43.0155L417.659 58.3236C414.348 56.403 410.789 54.9466 407.082 53.9956 403.066 52.9186 398.924 52.3758 394.766 52.3813 388.661 52.3813 385.609 53.4204 385.609 55.4985 385.588 56.4447 386.137 57.3111 387.001 57.6973 388.669 58.4065 390.416 58.9111 392.205 59.2003L401.947 60.9538C408.275 62.0671 412.992 64.0154 416.1 66.7986 419.207 69.5819 420.766 73.6548 420.776 79.0172 420.876 84.7552 417.926 90.116 413.024 93.1006 407.893 96.5425 400.569 98.259 391.05 98.2497 385.577 98.2582 380.125 97.5707 374.824 96.204Z" fill="#FFFFFF" transform="matrix(1 0 0 1.00673 3056.56 1102)"/><path d="M443.793 94.1583C438.586 91.7652 434.195 87.8937 431.171 83.0251 428.35 78.2509 426.905 72.7888 426.996 67.244 426.913 61.7025 428.435 56.2552 431.38 51.5602 434.52 46.7682 438.988 42.9959 444.239 40.7054 450.624 37.9235 457.539 36.5745 464.501 36.7532 474.243 36.7532 482.328 38.7989 488.757 42.8903L488.757 60.745C486.311 59.1008 483.639 57.8209 480.825 56.9458 477.674 55.9512 474.387 55.4582 471.084 55.4846 465.044 55.4846 460.316 56.5886 456.903 58.7967 452.104 61.4749 450.386 67.5359 453.063 72.3346 453.936 73.8981 455.215 75.1972 456.764 76.0948 460.076 78.3307 464.881 79.4486 471.181 79.4486 474.433 79.4564 477.667 78.9876 480.783 78.057 483.625 77.2422 486.355 76.0782 488.91 74.5918L488.91 91.8481C481.38 96.2383 472.784 98.4633 464.07 98.2775 457.085 98.468 450.15 97.0591 443.793 94.1583Z" fill="#FFFFFF" transform="matrix(1 0 0 1.00673 3056.56 1102)"/><path d="M513.014 94.1583C507.748 91.7535 503.28 87.8899 500.141 83.0251 497.182 78.2621 495.647 72.7531 495.716 67.1466 495.621 61.6066 497.16 56.1614 500.141 51.4906 503.297 46.7496 507.745 43.0116 512.958 40.7193 525.764 35.5237 540.092 35.5237 552.898 40.7193 558.092 42.9941 562.521 46.7137 565.659 51.435 568.621 56.123 570.145 61.575 570.043 67.1187 570.113 72.7195 568.591 78.2252 565.659 82.9973 562.555 87.8654 558.108 91.7318 552.856 94.1304 540.135 99.5856 525.735 99.5856 513.014 94.1304ZM542.614 76.8741C545.046 74.3629 546.335 70.9594 546.176 67.4666 546.346 64.0052 545.053 60.6317 542.614 58.1705 539.97 55.7451 536.454 54.4949 532.872 54.7053 529.293 54.517 525.787 55.7643 523.131 58.1705 520.701 60.6369 519.414 64.0081 519.582 67.4666 519.425 70.9564 520.708 74.3579 523.131 76.8741 525.762 79.3298 529.278 80.6107 532.872 80.4228 536.47 80.6321 539.993 79.3482 542.614 76.8741Z" fill="#FFFFFF" transform="matrix(1 0 0 1.00673 3056.56 1102)"/><path d="M628.589 40.3575 628.589 61.4269C625.681 59.6915 622.328 58.8449 618.945 58.9916 613.754 58.9916 609.746 60.578 606.963 63.7231 604.18 66.8682 602.788 71.7529 602.788 78.3771L602.788 96.3014 578.922 96.3014 578.922 39.3138 602.301 39.3138 602.301 57.4051C603.599 50.7809 605.697 45.8962 608.591 42.7511 611.432 39.6212 615.499 37.8921 619.724 38.0196 622.842 37.9345 625.919 38.746 628.589 40.3575Z" fill="#FFFFFF" transform="matrix(1 0 0 1.00673 3056.56 1102)"/><path d="M707.885 26.1628 707.885 96.3014 684.018 96.3014 684.018 83.4983C682.219 88.0563 678.985 91.9053 674.805 94.4644 670.192 97.0929 664.944 98.4023 659.637 98.2497 654.642 98.366 649.725 96.9951 645.511 94.3113 641.431 91.6604 638.18 87.9127 636.132 83.4983 633.897 78.6256 632.785 73.3136 632.875 67.9537 632.718 62.3965 633.902 56.8831 636.327 51.8803 638.556 47.2979 642.034 43.4386 646.36 40.7472 650.808 38.0525 655.927 36.6681 661.126 36.7532 672.481 36.7532 680.112 41.6889 684.018 51.5602L684.018 26.1628ZM680.511 76.5401C682.97 74.1194 684.299 70.7761 684.171 67.3275 684.276 63.981 682.944 60.7496 680.511 58.4488 674.882 53.8663 666.81 53.8663 661.181 58.4488 658.756 60.8021 657.445 64.0758 657.577 67.4527 657.453 70.861 658.778 74.1625 661.223 76.5401 663.806 78.9411 667.247 80.2003 670.77 80.0331 674.355 80.2312 677.868 78.9714 680.511 76.5401Z" fill="#FFFFFF" transform="matrix(1 0 0 1.00673 3056.56 1102)"/><path d="M149.879 11.2305C138.255 5.90845 125.983 2.1328 113.377-4.24695e-07 111.652 3.0837 110.091 6.25643 108.701 9.50489 95.2731 7.48148 81.6181 7.48148 68.1903 9.50489 66.7995 6.25676 65.2386 3.08408 63.5144-1.06174e-07 50.9004 2.1508 38.6202 5.93542 26.9839 11.2584 3.88267 45.437-2.3797 78.7667 0.751485 111.623L0.751485 111.623C14.2802 121.619 29.4226 129.221 45.5205 134.098 49.1453 129.223 52.3527 124.051 55.1089 118.637 49.874 116.682 44.8215 114.27 40.0096 111.428 41.276 110.51 42.5146 109.564 43.7114 108.645 72.059 121.976 104.874 121.976 133.222 108.645 134.432 109.633 135.671 110.58 136.923 111.428 132.102 114.274 127.04 116.691 121.796 118.651 124.549 124.062 127.757 129.23 131.385 134.098 147.497 129.24 162.651 121.642 176.181 111.637L176.181 111.637C179.855 73.5342 169.905 40.5106 149.879 11.2305ZM59.0751 91.4167C50.3495 91.4167 43.1408 83.4983 43.1408 73.7568 43.1408 64.0154 50.099 56.0274 59.0472 56.0274 67.9955 56.0274 75.1485 64.0154 74.9954 73.7568 74.8423 83.4983 67.9676 91.4167 59.0751 91.4167ZM117.858 91.4167C109.118 91.4167 101.938 83.4983 101.938 73.7568 101.938 64.0154 108.896 56.0274 117.858 56.0274 126.82 56.0274 133.917 64.0154 133.764 73.7568 133.611 83.4983 126.75 91.4167 117.858 91.4167Z" fill="#FFFFFF" transform="matrix(1 0 0 1.00673 3056.56 1102)"/><path d="M349.955 34.6935C349.955 40.5962 344.628 45.3813 338.057 45.3813 331.485 45.3813 326.158 40.5962 326.158 34.6935 326.158 28.7908 331.485 24.0058 338.057 24.0058 344.628 24.0058 349.955 28.7908 349.955 34.6935Z" fill="#FFFFFF" transform="matrix(1 0 0 1.00673 3056.56 1102)"/><path d="M326.144 52.7431C333.759 55.9433 342.34 55.9433 349.955 52.7431L349.955 96.6075 326.144 96.6075Z" fill="#FFFFFF" transform="matrix(1 0 0 1.00673 3056.56 1102)"/></g></g></g></g></svg>