<?xml version="1.0" encoding="utf-8"?>
<!-- Generator: Adobe Illustrator 27.5.0, SVG Export Plug-In . SVG Version: 6.00 Build 0)  -->
<svg version="1.1" xmlns="http://www.w3.org/2000/svg" xmlns:xlink="http://www.w3.org/1999/xlink" x="0px" y="0px"
	 viewBox="0 0 500 500" style="enable-background:new 0 0 500 500;" xml:space="preserve">
<g id="Plants">
	<g id="Plants_6_">
		<g id="XMLID_1180_">
			<g id="XMLID_1185_">
				<path id="XMLID_1186_" style="fill:#BA68C8;" d="M54.999,301.933l8.655-5.601c0,0,4.194-22.314,1.079-42.045
					c-4.379-27.741-23.267-37.309-30.127-34.552c-6.86,2.757-8.472,10.975,3.917,27.004
					C45.832,256.196,55.233,276.188,54.999,301.933z"/>
			</g>
			<g id="XMLID_1183_" style="opacity:0.3;">
				<path id="XMLID_1184_" style="fill:#FFFFFF;" d="M54.999,301.933l8.655-5.601c0,0,4.194-22.314,1.079-42.045
					c-4.379-27.741-23.267-37.309-30.127-34.552c-6.86,2.757-8.472,10.975,3.917,27.004
					C45.832,256.196,55.233,276.188,54.999,301.933z"/>
			</g>
			<g id="XMLID_1181_">
				<path id="XMLID_1182_" style="fill:#FFFFFF;" d="M58.146,290.915c-0.029,0-0.057-0.003-0.086-0.006
					c-0.339-0.047-0.576-0.359-0.528-0.698c3.589-25.971-6.855-54.425-18.59-65.893c-0.244-0.238-0.249-0.631-0.01-0.875
					c0.239-0.242,0.631-0.249,0.875-0.01c11.949,11.676,22.593,40.594,18.95,66.947C58.716,290.69,58.45,290.915,58.146,290.915z"/>
			</g>
		</g>
		<g id="XMLID_1169_">
			<g id="XMLID_1178_">
				<path id="XMLID_1179_" style="fill:#BA68C8;" d="M33.216,316.017c-1.297,0.745-4.992-2.108-6.016-2.795
					c-1.754-1.177-3.174-2.843-4.118-4.727c-1.098-2.193-1.375-4.543-1.031-6.97c0.179-1.258,0.531-2.484,0.882-3.706
					c0.345-1.199,0.689-2.398,1.034-3.597c0.34-1.183,0.684-2.407,0.527-3.628c-0.315-2.46-2.499-4.184-4.484-5.671
					c-2.195-1.644-4.482-3.814-4.469-6.776c0.009-2.285,1.193-4.408,2.609-6.201c1.416-1.794,3.097-3.378,4.377-5.271
					c0.921-1.363,1.64-2.964,1.491-4.602c-0.093-1.018-0.515-1.977-1.002-2.875c-1.046-1.929-2.426-3.695-3.147-5.767
					c-0.721-2.072-0.619-4.649,0.998-6.131c1.327-1.217,3.3-1.387,5.096-1.268c1.662,0.11,3.286,0.86,4.74,1.669
					c4.702,2.615,7.386,8.184,12.376,10.196c1.925,0.776,4.033,0.946,6.04,1.476c2.006,0.53,4.052,1.555,4.981,3.41
					c1.832,3.658-1.567,8.167-0.28,12.051c1.139,3.436,4.479,4.752,6.354,7.849c0.82,1.355,1.009,2.921,0.877,4.499
					c-0.224,2.671-0.615,4.632-1.897,7.602c-1.06,2.455-4.154,7.15-4.154,7.15S33.415,315.903,33.216,316.017z"/>
			</g>
			<g id="XMLID_1176_" style="opacity:0.65;">
				<path id="XMLID_1177_" style="fill:#FFFFFF;" d="M33.216,316.017c-1.297,0.745-4.992-2.108-6.016-2.795
					c-1.754-1.177-3.174-2.843-4.118-4.727c-1.098-2.193-1.375-4.543-1.031-6.97c0.179-1.258,0.531-2.484,0.882-3.706
					c0.345-1.199,0.689-2.398,1.034-3.597c0.34-1.183,0.684-2.407,0.527-3.628c-0.315-2.46-2.499-4.184-4.484-5.671
					c-2.195-1.644-4.482-3.814-4.469-6.776c0.009-2.285,1.193-4.408,2.609-6.201c1.416-1.794,3.097-3.378,4.377-5.271
					c0.921-1.363,1.64-2.964,1.491-4.602c-0.093-1.018-0.515-1.977-1.002-2.875c-1.046-1.929-2.426-3.695-3.147-5.767
					c-0.721-2.072-0.619-4.649,0.998-6.131c1.327-1.217,3.3-1.387,5.096-1.268c1.662,0.11,3.286,0.86,4.74,1.669
					c4.702,2.615,7.386,8.184,12.376,10.196c1.925,0.776,4.033,0.946,6.04,1.476c2.006,0.53,4.052,1.555,4.981,3.41
					c1.832,3.658-1.567,8.167-0.28,12.051c1.139,3.436,4.479,4.752,6.354,7.849c0.82,1.355,1.009,2.921,0.877,4.499
					c-0.224,2.671-0.615,4.632-1.897,7.602c-1.06,2.455-4.154,7.15-4.154,7.15S33.415,315.903,33.216,316.017z"/>
			</g>
			<g id="XMLID_1174_">
				<path id="XMLID_1175_" style="fill:#FFFFFF;" d="M45.781,308.641c-0.008,0-0.016,0-0.016,0c-0.332-0.014-0.582-0.287-0.57-0.61
					c0.968-23.246-9.985-48.909-17.95-56.365c-0.236-0.221-0.248-0.591-0.027-0.828c0.222-0.236,0.591-0.247,0.828-0.027
					c8.125,7.606,19.3,33.695,18.32,57.268C46.353,308.395,46.093,308.641,45.781,308.641z"/>
			</g>
			<g id="XMLID_1171_">
				<path id="XMLID_1173_" style="fill:#FFFFFF;" d="M42.044,280.228c-0.057,0-0.116-0.008-0.173-0.026
					c-7.468-2.309-16.777-2.716-16.869-2.719c-0.324-0.014-0.574-0.287-0.561-0.61c0.014-0.322,0.258-0.577,0.609-0.561
					c0.095,0.004,9.551,0.417,17.167,2.772c0.309,0.095,0.482,0.423,0.386,0.732C42.525,280.067,42.294,280.228,42.044,280.228z"/>
			</g>
		</g>
	</g>
</g>
<g id="Floor">
	<ellipse id="Floor_5_" style="fill:#FAFAFA;" cx="253.68" cy="351.657" rx="230.995" ry="133.363"/>
</g>
<g id="Shadows">
	<path id="Shadow_11_" style="fill:#E6E6E6;" d="M130.924,294.811c48.924-28.246,128.244-28.246,177.167,0
		c41.47,23.943,47.771,60.493,18.935,88.278l107.65,61.365c6.562,3.788,6.562,9.93,0,13.718l-9.674,5.585
		c-6.561,3.788-17.019,3.496-23.359-0.653l-94.031-65.744c-48.959,27.975-127.92,27.893-176.688-0.262
		C82.002,368.852,82.001,323.057,130.924,294.811z"/>
</g>
<g id="Clouds">
	<path id="Cloud_2_" style="fill:#EBEBEB;" d="M150.755,46.5l-8.488,4.901c0.042-0.379,0.071-0.755,0.071-1.124v-2.459
		c0-4.376-3.072-6.15-6.862-3.962c-1.535,0.886-2.947,2.29-4.09,3.933c-0.621-5.502-4.938-7.552-10.182-4.525
		c-5.67,3.273-10.266,11.235-10.266,17.782v3.679c0,1.696,0.314,3.124,0.869,4.262l-7.051,4.071
		c-2.102,1.214-3.807,4.165-3.807,6.593c0,2.428,1.704,3.411,3.807,2.198l45.999-26.557c2.102-1.214,3.806-4.166,3.806-6.593
		C154.561,46.271,152.857,45.287,150.755,46.5z"/>
	<path id="Cloud_1_" style="fill:#EBEBEB;" d="M38.898,68.556l4.785-3.685V54.331c0-8.356,6.665-18.056,13.902-22.234l0,0
		c7.237-4.178,13.103-0.791,13.103,7.565v1.531c1.642-2.551,3.762-4.745,6.081-6.084l0,0c5.208-3.006,9.429-0.569,9.429,5.444v0.696
		l6.672-3.851c3.43-1.98,6.21-0.375,6.21,3.585s-2.78,8.775-6.21,10.755l-53.972,31.16c-3.429,1.98-6.209,0.375-6.209-3.585
		S35.468,70.537,38.898,68.556z"/>
</g>
<g id="Glass">
	<g id="Glass_1_">
		<g id="XMLID_283_">
			<g>
				<path id="XMLID_296_" style="fill:#BA68C8;" d="M109.834,313.191v30.431c0,16.52,10.916,33.04,32.747,45.644
					c43.663,25.209,114.455,25.209,158.119,0c21.832-12.604,32.748-29.124,32.748-45.644v-30.431l0,0
					c0-16.52-10.916-33.04-32.748-45.644c-43.664-25.209-114.456-25.209-158.119,0C120.749,280.151,109.835,296.672,109.834,313.191
					L109.834,313.191z M322.634,313.193c0,13.216-9.71,26.1-27.34,36.28c-19.501,11.258-45.659,17.459-73.653,17.459
					c-27.997,0-54.155-6.201-73.653-17.459c-17.63-10.179-27.34-23.064-27.34-36.28c0-13.217,9.708-26.103,27.34-36.282
					c19.499-11.258,45.657-17.459,73.653-17.459c27.997,0,54.155,6.201,73.653,17.459
					C312.926,287.09,322.634,299.975,322.634,313.193z"/>
				<path id="XMLID_276_" style="opacity:0.2;fill:#FFFFFF;" d="M109.834,313.191v30.431c0,16.52,10.916,33.04,32.747,45.644
					c43.663,25.209,114.455,25.209,158.119,0c21.832-12.604,32.748-29.124,32.748-45.644v-30.431l0,0
					c0-16.52-10.916-33.04-32.748-45.644c-43.664-25.209-114.456-25.209-158.119,0C120.749,280.151,109.835,296.672,109.834,313.191
					L109.834,313.191z M322.634,313.193c0,13.216-9.71,26.1-27.34,36.28c-19.501,11.258-45.659,17.459-73.653,17.459
					c-27.997,0-54.155-6.201-73.653-17.459c-17.63-10.179-27.34-23.064-27.34-36.28c0-13.217,9.708-26.103,27.34-36.282
					c19.499-11.258,45.657-17.459,73.653-17.459c27.997,0,54.155,6.201,73.653,17.459
					C312.926,287.09,322.634,299.975,322.634,313.193z"/>
				<path style="opacity:0.6;fill:#BA68C8;" d="M333.336,346.464c-1.74,10.462-6.349,18.345-24.914,32.839
					c-26.255,20.499-92.724,28.87-131.305,16.133c-36.383-12.012-47.983-35.483-47.983-51.595l0.094-9.466
					c-5.616-6.694-8.581-13.887-8.581-21.182c0-7.479,3.111-14.851,9.004-21.687l0.132-13.331h-2.086
					c-11.903,10.622-17.862,22.819-17.863,35.017v30.43c0,16.52,10.916,33.04,32.747,45.644c43.664,25.209,114.455,25.209,158.119,0
					C321.28,377.385,332.155,362.024,333.336,346.464z"/>
			</g>
			<g>
				<path id="XMLID_291_" style="fill:#BA68C8;" d="M300.707,267.547c-43.663-25.209-114.455-25.209-158.119,0
					c-43.664,25.209-43.663,66.082,0.001,91.29c43.665,25.209,114.456,25.209,158.12,0
					C344.37,333.629,344.37,292.756,300.707,267.547z M295.301,349.473c-19.499,11.258-45.657,17.459-73.654,17.459
					c-27.995,0-54.152-6.201-73.653-17.459c-17.63-10.179-27.34-23.064-27.34-36.28c0-13.217,9.708-26.103,27.34-36.282
					c19.499-11.258,45.656-17.459,73.653-17.459c27.997,0,54.155,6.201,73.654,17.459c17.632,10.179,27.34,23.064,27.34,36.282
					C322.641,326.409,312.931,339.293,295.301,349.473z"/>
				<path id="XMLID_273_" style="opacity:0.5;fill:#FFFFFF;" d="M300.707,267.547c-43.663-25.209-114.455-25.209-158.119,0
					c-43.664,25.209-43.663,66.082,0.001,91.29c43.665,25.209,114.456,25.209,158.12,0
					C344.37,333.629,344.37,292.756,300.707,267.547z M295.301,349.473c-19.499,11.258-45.657,17.459-73.654,17.459
					c-27.995,0-54.152-6.201-73.653-17.459c-17.63-10.179-27.34-23.064-27.34-36.28c0-13.217,9.708-26.103,27.34-36.282
					c19.499-11.258,45.656-17.459,73.653-17.459c27.997,0,54.155,6.201,73.654,17.459c17.632,10.179,27.34,23.064,27.34,36.282
					C322.641,326.409,312.931,339.293,295.301,349.473z"/>
			</g>
			<g id="XMLID_286_">
				<path id="XMLID_288_" style="fill:#BA68C8;" d="M322.65,313.19c0,5.19-1.492,10.294-4.368,15.224
					c-4.433-7.677-12.239-14.878-22.988-21.063c-19.484-11.267-45.652-17.473-73.656-17.473c-27.983,0-54.15,6.206-73.635,17.473
					c-10.748,6.185-18.554,13.386-23.009,21.063c-2.855-4.93-4.347-10.034-4.347-15.224c0-13.213,9.71-26.102,27.356-36.288
					c19.484-11.245,45.652-17.452,73.635-17.452c28.005,0,54.172,6.207,73.656,17.452C312.939,287.088,322.65,299.977,322.65,313.19
					z"/>
				<path id="XMLID_287_" style="opacity:0.3;fill:#FFFFFF;" d="M322.65,313.19c0,5.19-1.492,10.294-4.368,15.224
					c-4.433-7.677-12.239-14.878-22.988-21.063c-19.484-11.267-45.652-17.473-73.656-17.473c-27.983,0-54.15,6.206-73.635,17.473
					c-10.748,6.185-18.554,13.386-23.009,21.063c-2.855-4.93-4.347-10.034-4.347-15.224c0-13.213,9.71-26.102,27.356-36.288
					c19.484-11.245,45.652-17.452,73.635-17.452c28.005,0,54.172,6.207,73.656,17.452C312.939,287.088,322.65,299.977,322.65,313.19
					z"/>
				<path style="opacity:0.6;fill:#BA68C8;" d="M148.002,276.902c-17.646,10.185-27.356,23.074-27.356,36.288
					c0,5.19,1.492,10.294,4.347,15.224c4.455-7.677,12.261-14.878,23.009-21.063c4.383-2.534,9.119-4.797,14.123-6.807
					c-4.265,1.647-17.34,5.856-12.572-6.612c5.666-14.816,33.332-30.85,53.665-33.516l0.013-0.034
					C182.313,262.489,163.137,268.167,148.002,276.902z"/>
			</g>
		</g>
		<path id="XMLID_285_" style="opacity:0.4;fill:#FFFFFF;" d="M295.301,290.689c-19.499-11.258-45.657-17.459-73.654-17.459
			c-27.997,0-54.154,6.2-73.653,17.459c-14.549,8.399-23.685,18.642-26.441,29.392c2.756,10.75,11.894,20.992,26.441,29.391
			c19.501,11.258,45.658,17.459,73.653,17.459c27.997,0,54.155-6.201,73.654-17.459c14.547-8.399,23.684-18.642,26.442-29.391
			C318.986,309.331,309.85,299.088,295.301,290.689z"/>
		<path style="fill:#FFFFFF;" d="M140.52,327.06c6.249,4.898,13.34,7.98,20.57,10.459c7.247,2.45,14.697,4.187,22.208,5.479
			c15.044,2.525,30.336,3.237,45.564,2.598c7.61-0.331,15.232-1.044,22.802-2.071c7.551-1.077,15.063-2.425,22.386-4.406
			c7.32-1.956,14.514-4.447,21.129-8.024c1.657-0.886,3.259-1.868,4.798-2.934c1.555-1.052,3.015-2.229,4.392-3.503
			c1.374-1.279,2.629-2.695,3.69-4.272c1.094-1.562,1.923-3.318,2.49-5.223c0.06,1.99-0.348,4.017-1.021,5.956
			c-0.703,1.932-1.704,3.756-2.852,5.478c-1.14,1.734-2.484,3.325-3.926,4.802c-1.427,1.503-2.989,2.855-4.593,4.146
			c-6.471,5.128-13.864,8.829-21.43,11.767c-7.595,2.912-15.444,4.995-23.365,6.511c-7.919,1.507-15.928,2.437-23.995,2.844
			c-16.113,0.75-32.404-0.779-48.004-5.108c-7.779-2.211-15.403-5.098-22.508-9.014c-3.539-1.973-6.965-4.171-10.1-6.735
			c-0.792-0.626-1.536-1.322-2.299-1.975c-0.73-0.704-1.48-1.37-2.169-2.107C142.905,330.262,141.625,328.707,140.52,327.06z"/>
		<g id="XMLID_259_">
			<g id="XMLID_280_">
				<path id="XMLID_282_" style="fill:#37474F;" d="M297.377,378.209c-0.02-4.996,3.462-11.085,7.778-13.6
					c2.147-1.252,4.094-1.379,5.514-0.58l0.001-0.004l0.02,0.011l0.004,0.002l24.912,14.247c0.009,0.005,0.017,0.01,0.026,0.015
					l0.008,0.005l-0.001,0.001c1.409,0.818,2.287,2.561,2.297,5.047c0.02,4.996-3.462,11.085-7.779,13.601
					c-2.159,1.258-4.117,1.384-5.538,0.571l0,0l-24.907-14.242l0.003-0.003C298.282,382.471,297.387,380.718,297.377,378.209z"/>
				<path id="XMLID_281_" style="fill:#263238;" d="M299.715,383.279c-1.433-0.808-2.327-2.561-2.337-5.07
					c-0.008-1.883,0.484-3.92,1.328-5.864l35.81,20.524c-1.243,1.699-2.742,3.142-4.358,4.084c-2.159,1.258-4.117,1.384-5.538,0.571
					l-24.907-14.242L299.715,383.279z"/>
			</g>
			<g>
				<path style="fill:#455A64;" d="M420.44,418.811L420.44,418.811l-0.008-0.005c-0.011-0.006-0.021-0.011-0.032-0.017
					l-79.261-40.385c-0.002-0.001-0.005-0.003-0.007-0.004l-0.105-0.056l-0.008,0.014c-1.84-0.991-4.335-0.82-7.088,0.786
					c-5.617,3.274-10.15,11.199-10.123,17.701c0.014,3.259,1.171,5.54,3.029,6.596l74.532,47.983l0,0
					c2.91,1.831,6.354,2.889,10.047,2.889c10.436,0,18.896-8.46,18.896-18.896C430.31,428.249,426.319,422.014,420.44,418.811z"/>
				<path style="fill:#37474F;" d="M326.835,403.44l74.532,47.983c2.91,1.831,6.354,2.889,10.046,2.889
					c10.026,0,18.205-7.814,18.835-17.68c-1.428,6.205-11.688,11.485-24.412,4.374c-12.795-7.15-59.833-36.879-81.249-49.21
					c-0.509,1.708-0.787,3.423-0.78,5.048C323.82,400.103,324.978,402.385,326.835,403.44z"/>
				<path style="fill:#BA68C8;" d="M326.835,403.44c-1.858-1.055-3.015-3.337-3.029-6.596c-0.027-6.502,4.506-14.427,10.123-17.701
					c2.754-1.605,5.249-1.777,7.088-0.786l7.023,3.561c-1.887-1.017-4.445-0.841-7.27,0.806
					c-5.761,3.358-10.41,11.485-10.382,18.153c0.014,3.342,1.149,5.734,3.054,6.816"/>
				<path style="opacity:0.2;" d="M333.442,407.693c-1.904-1.082-3.039-3.474-3.053-6.815c-0.007-1.677,0.283-3.447,0.811-5.21
					c-2.395-1.42-4.616-2.722-6.613-3.873c-0.254,0.854-0.451,1.71-0.584,2.555c-0.066,0.423-0.116,0.843-0.149,1.259
					c-0.033,0.416-0.049,0.828-0.048,1.234c0.014,3.259,1.171,5.54,3.029,6.596L333.442,407.693z"/>
			</g>
		</g>
	</g>
</g>
<g id="Paper_Planes">
	<g id="Paper_Plane_3_">
		<g>
			<g id="XMLID_373_">
				<polygon style="fill:#BA68C8;" points="137.206,449.76 77.213,419.754 53.313,430.326 				"/>
			</g>
			<g id="XMLID_372_" style="opacity:0.15;">
				<polygon style="fill:#FFFFFF;" points="137.206,449.76 77.213,419.754 53.313,430.326 				"/>
			</g>
			<g id="XMLID_359_">
				<polygon style="fill:#BA68C8;" points="137.206,449.76 84.355,414.43 93.821,400.826 				"/>
			</g>
			<g id="XMLID_358_" style="opacity:0.15;">
				<polygon style="fill:#FFFFFF;" points="137.206,449.76 84.355,414.43 93.821,400.826 				"/>
			</g>
			<g id="XMLID_357_">
				<polygon style="fill:#BA68C8;" points="84.355,414.43 85.354,423.826 137.206,449.76 				"/>
			</g>
			<g id="XMLID_356_" style="opacity:0.2;">
				<polygon points="84.355,414.43 85.354,423.826 137.206,449.76 				"/>
			</g>
		</g>
		<g>
			<g>
				<g>
					<path style="fill:#455A64;" d="M75.804,412.626c0.138,0,0.277-0.053,0.39-0.161c0.247-0.239,0.275-0.655,0.059-0.93
						c-0.39-0.497-0.774-0.995-1.156-1.495c-0.212-0.281-0.586-0.314-0.837-0.078c-0.251,0.234-0.283,0.65-0.071,0.928
						c0.384,0.506,0.773,1.009,1.165,1.511C75.472,412.551,75.637,412.626,75.804,412.626z"/>
				</g>
			</g>
			<g>
				<g>
					<path style="fill:#455A64;" d="M70.533,405.81c-0.71-1.043-1.4-2.093-2.071-3.153c-0.188-0.298-0.123-0.709,0.145-0.919
						c0.266-0.209,0.638-0.135,0.829,0.16c0.662,1.047,1.345,2.087,2.046,3.117c0.198,0.291,0.146,0.704-0.116,0.923
						c-0.107,0.09-0.233,0.133-0.358,0.133C70.827,406.072,70.649,405.982,70.533,405.81z M65.241,397.22
						c-0.616-1.115-1.209-2.239-1.778-3.37c-0.161-0.317-0.058-0.719,0.229-0.896c0.285-0.18,0.649-0.064,0.808,0.254
						c0.562,1.116,1.147,2.225,1.755,3.323c0.171,0.311,0.083,0.717-0.196,0.908c-0.098,0.066-0.205,0.096-0.311,0.096
						C65.548,397.535,65.353,397.424,65.241,397.22z M60.781,388.059c-0.5-1.185-0.979-2.387-1.424-3.575
						c-0.125-0.336,0.018-0.722,0.321-0.862c0.304-0.139,0.651,0.02,0.777,0.357c0.437,1.171,0.908,2.355,1.401,3.522
						c0.139,0.33,0.011,0.722-0.286,0.876c-0.081,0.043-0.168,0.063-0.252,0.063C61.095,388.439,60.881,388.298,60.781,388.059z
						 M57.323,378.375c-0.366-1.25-0.704-2.511-1.004-3.748c-0.086-0.351,0.101-0.714,0.418-0.808
						c0.317-0.099,0.644,0.114,0.728,0.464c0.296,1.216,0.628,2.456,0.988,3.685c0.101,0.346-0.069,0.718-0.382,0.831
						c-0.06,0.022-0.123,0.033-0.183,0.033C57.637,378.832,57.405,378.654,57.323,378.375z M55.025,368.272
						c-0.208-1.273-0.39-2.574-0.538-3.864c-0.042-0.362,0.188-0.692,0.514-0.737c0.316-0.044,0.624,0.21,0.664,0.57
						c0.146,1.268,0.324,2.546,0.529,3.796c0.058,0.358-0.156,0.702-0.479,0.766c-0.035,0.008-0.072,0.011-0.107,0.011
						C55.327,368.815,55.077,368.591,55.025,368.272z M53.997,357.914c-0.036-1.019-0.055-2.043-0.056-3.069l0.005-0.842
						c0.005-0.362,0.269-0.65,0.594-0.65c0.002,0,0.006,0,0.008,0c0.328,0.005,0.59,0.303,0.586,0.668l-0.004,0.823
						c0.001,1.01,0.019,2.016,0.056,3.017c0.014,0.364-0.242,0.67-0.57,0.685c-0.008,0-0.016,0-0.024,0
						C54.273,358.546,54.009,358.268,53.997,357.914z M54.792,348.215c-0.327-0.034-0.567-0.356-0.536-0.718
						c0.111-1.288,0.251-2.594,0.418-3.882c0.046-0.36,0.349-0.612,0.672-0.559c0.325,0.052,0.551,0.386,0.504,0.746
						c-0.164,1.268-0.303,2.554-0.411,3.819c-0.03,0.341-0.288,0.597-0.59,0.597C54.83,348.218,54.811,348.218,54.792,348.215z
						 M56.192,337.999c-0.32-0.081-0.52-0.435-0.446-0.79c0.262-1.266,0.562-2.54,0.89-3.788c0.092-0.349,0.419-0.55,0.737-0.449
						c0.316,0.102,0.496,0.469,0.405,0.818c-0.323,1.224-0.617,2.474-0.874,3.714c-0.063,0.305-0.308,0.512-0.579,0.512
						C56.282,338.017,56.236,338.011,56.192,337.999z M58.889,328.115c-0.306-0.137-0.452-0.52-0.331-0.857
						c0.435-1.202,0.911-2.41,1.411-3.588c0.14-0.331,0.499-0.465,0.791-0.316c0.297,0.156,0.424,0.549,0.285,0.877
						c-0.491,1.155-0.957,2.339-1.384,3.517c-0.093,0.258-0.317,0.415-0.552,0.415C59.036,328.163,58.96,328.147,58.889,328.115z
						 M62.946,318.817c-0.282-0.187-0.373-0.592-0.204-0.904c0.603-1.118,1.243-2.226,1.902-3.298
						c0.186-0.302,0.556-0.376,0.826-0.173c0.271,0.206,0.341,0.616,0.156,0.917c-0.646,1.051-1.274,2.138-1.866,3.232
						c-0.112,0.206-0.308,0.32-0.509,0.32C63.147,318.911,63.042,318.882,62.946,318.817z M68.263,310.335
						c-0.252-0.234-0.286-0.648-0.076-0.929c0.755-1.005,1.541-1.992,2.337-2.935c0.226-0.267,0.602-0.279,0.84-0.032
						c0.24,0.249,0.252,0.666,0.028,0.932c-0.781,0.925-1.551,1.894-2.291,2.88c-0.118,0.155-0.287,0.236-0.457,0.236
						C68.509,310.486,68.375,310.437,68.263,310.335z M74.686,302.847c-0.218-0.272-0.195-0.689,0.05-0.93
						c0.88-0.866,1.791-1.713,2.705-2.516c0.257-0.226,0.632-0.18,0.836,0.107c0.204,0.286,0.16,0.7-0.097,0.927
						c-0.898,0.788-1.791,1.618-2.655,2.468c-0.113,0.111-0.254,0.166-0.394,0.166C74.966,303.068,74.803,302.994,74.686,302.847z
						 M82.053,296.519c-0.177-0.307-0.097-0.714,0.18-0.91c1.009-0.715,2.033-1.389,3.043-2.002
						c0.285-0.171,0.647-0.057,0.807,0.263c0.157,0.32,0.051,0.719-0.237,0.895c-0.986,0.598-1.987,1.255-2.972,1.954
						c-0.099,0.071-0.21,0.104-0.32,0.104C82.359,296.822,82.166,296.715,82.053,296.519z"/>
				</g>
			</g>
			<g>
				<g>
					<path style="fill:#455A64;" d="M90.899,292.199c0.061,0,0.121-0.011,0.181-0.033c0.635-0.225,1.183-0.376,1.63-0.448
						c0.325-0.052,0.551-0.385,0.504-0.746c-0.046-0.362-0.356-0.616-0.673-0.559c-0.513,0.082-1.126,0.249-1.824,0.498
						c-0.313,0.111-0.484,0.482-0.384,0.828C90.415,292.021,90.647,292.199,90.899,292.199z"/>
				</g>
			</g>
		</g>
	</g>
	<g id="Paper_Plane_2_">
		<g id="XMLID_16655_">
			<polygon id="XMLID_16653_" style="fill:#BA68C8;" points="371.698,62.149 310.197,43.3 357.577,75.846 			"/>
			<polygon id="XMLID_383_" style="opacity:0.15;fill:#FFFFFF;" points="371.698,62.149 310.197,43.3 357.577,75.846 			"/>
			<polygon id="XMLID_16654_" style="fill:#BA68C8;" points="310.197,43.3 376.39,53.947 390.51,40.25 			"/>
			<polygon id="XMLID_386_" style="opacity:0.15;fill:#FFFFFF;" points="310.197,43.3 376.39,53.947 390.51,40.25 			"/>
			<polygon id="XMLID_16619_" style="fill:#BA68C8;" points="376.39,53.947 376.455,70.314 371.698,62.149 310.197,43.3 			"/>
			<polygon id="XMLID_382_" style="opacity:0.2;" points="376.39,53.947 376.455,70.314 371.698,62.149 310.197,43.3 			"/>
			<polygon id="XMLID_16671_" style="fill:#BA68C8;" points="376.455,70.314 366.991,66.715 371.698,62.149 			"/>
			<polygon id="XMLID_377_" style="opacity:0.2;" points="371.698,62.149 366.991,66.715 368.5,67.289 			"/>
		</g>
		<g>
			<g>
				<g>
					<path style="fill:#455A64;" d="M388.862,59.27c-0.11,0.084-0.188,0.21-0.213,0.364c-0.052,0.34,0.178,0.687,0.517,0.776
						c0.611,0.159,1.218,0.323,1.826,0.489c0.339,0.095,0.656-0.106,0.713-0.445c0.058-0.338-0.169-0.688-0.506-0.781
						c-0.612-0.169-1.226-0.334-1.842-0.496C389.172,59.129,388.994,59.169,388.862,59.27z"/>
				</g>
			</g>
			<g>
				<g>
					<path style="fill:#455A64;" d="M397.186,61.498c1.197,0.399,2.382,0.817,3.558,1.253c0.33,0.123,0.528,0.489,0.442,0.819
						c-0.085,0.327-0.426,0.494-0.757,0.374c-1.161-0.431-2.335-0.845-3.516-1.24c-0.334-0.111-0.543-0.472-0.467-0.805
						c0.031-0.136,0.105-0.247,0.204-0.322C396.793,61.468,396.989,61.432,397.186,61.498z M406.6,65.125
						c1.165,0.514,2.319,1.048,3.457,1.604c0.32,0.155,0.482,0.537,0.361,0.852c-0.118,0.315-0.477,0.444-0.797,0.287
						c-1.123-0.548-2.26-1.075-3.41-1.58c-0.324-0.144-0.501-0.52-0.394-0.841c0.038-0.112,0.105-0.201,0.189-0.265
						C406.165,65.061,406.387,65.031,406.6,65.125z M415.7,69.71c1.116,0.639,2.225,1.305,3.299,1.981
						c0.303,0.191,0.423,0.585,0.267,0.881c-0.158,0.295-0.53,0.378-0.834,0.187c-1.057-0.667-2.15-1.323-3.248-1.953
						c-0.311-0.178-0.446-0.567-0.303-0.87c0.038-0.083,0.095-0.152,0.162-0.203C415.219,69.598,415.475,69.581,415.7,69.71z
						 M424.318,75.318c1.049,0.773,2.082,1.57,3.07,2.373c0.281,0.228,0.352,0.63,0.157,0.896c-0.192,0.271-0.581,0.3-0.861,0.072
						c-0.973-0.788-1.988-1.574-3.019-2.333c-0.291-0.214-0.38-0.613-0.199-0.892c0.035-0.054,0.078-0.101,0.126-0.137
						C423.791,75.145,424.084,75.146,424.318,75.318z M432.268,81.963c0.937,0.886,1.87,1.811,2.77,2.748
						c0.253,0.262,0.269,0.664,0.038,0.898c-0.224,0.226-0.623,0.211-0.874-0.051c-0.884-0.92-1.8-1.829-2.721-2.7
						c-0.263-0.249-0.301-0.653-0.083-0.899c0.023-0.027,0.05-0.053,0.078-0.074C431.699,81.714,432.033,81.741,432.268,81.963z
						 M439.363,89.58c0.646,0.788,1.281,1.592,1.904,2.408l0.507,0.672c0.215,0.29,0.18,0.68-0.079,0.877
						c-0.002,0.001-0.005,0.003-0.006,0.005c-0.264,0.195-0.653,0.116-0.87-0.176l-0.495-0.657
						c-0.613-0.803-1.237-1.592-1.873-2.367c-0.232-0.281-0.214-0.68,0.038-0.89c0.006-0.005,0.013-0.01,0.019-0.015
						C438.76,89.244,439.138,89.306,439.363,89.58z M444.607,97.777c0.281-0.171,0.667-0.06,0.861,0.247
						c0.693,1.092,1.372,2.216,2.02,3.342c0.182,0.314,0.093,0.698-0.196,0.852c-0.29,0.156-0.672,0.027-0.853-0.288
						c-0.638-1.108-1.306-2.215-1.987-3.287c-0.183-0.29-0.132-0.65,0.108-0.833C444.575,97.798,444.591,97.786,444.607,97.777z
						 M449.683,106.752c0.304-0.13,0.677,0.031,0.833,0.358c0.558,1.166,1.092,2.361,1.587,3.552c0.138,0.333,0,0.692-0.315,0.804
						c-0.313,0.11-0.679-0.073-0.817-0.405c-0.485-1.169-1.009-2.342-1.555-3.484c-0.135-0.28-0.065-0.594,0.15-0.758
						C449.601,106.793,449.641,106.77,449.683,106.752z M453.527,116.249c0.326-0.076,0.675,0.139,0.782,0.482
						c0.382,1.22,0.736,2.469,1.051,3.709c0.089,0.348-0.115,0.673-0.438,0.731c-0.331,0.056-0.67-0.18-0.758-0.525
						c-0.309-1.217-0.656-2.441-1.03-3.636c-0.082-0.262,0.001-0.522,0.188-0.664C453.382,116.3,453.451,116.268,453.527,116.249z
						 M455.934,126.104c0.337-0.022,0.655,0.245,0.71,0.595c0.197,1.254,0.36,2.524,0.485,3.776
						c0.035,0.353-0.215,0.636-0.552,0.639c-0.341,0.001-0.644-0.283-0.68-0.635c-0.122-1.227-0.282-2.473-0.474-3.702
						c-0.036-0.232,0.051-0.441,0.211-0.563C455.717,126.151,455.819,126.111,455.934,126.104z"/>
				</g>
			</g>
		</g>
	</g>
</g>
<g id="Stars_1_">
	<g id="Stars">
		<g>
			<path style="fill:#E0E0E0;" d="M466.88,285.83c-2.677-1.6-6.458-1.38-10.656,1.044l-76.167,43.975
				c-8.131,4.694-14.723,15.85-14.723,24.917c0,4.429,1.573,7.539,4.131,9.014c1.39,0.802,6.777,3.911,8.175,4.71
				c2.67,1.525,6.402,1.277,10.539-1.112l76.168-43.976c8.131-4.694,14.723-15.85,14.723-24.917c0-4.409-1.559-7.509-4.096-8.993
				C473.578,289.675,468.224,286.632,466.88,285.83z"/>
			<g>
				<path style="fill:#FAFAFA;" d="M381.42,369.951c-4.602,0-7.462-3.637-7.462-9.491c0-8.893,6.492-19.876,14.473-24.484
					l76.168-43.975c2.274-1.313,4.525-2.007,6.51-2.007c4.604,0,7.463,3.636,7.463,9.49c0,8.893-6.492,19.876-14.473,24.483
					l-76.169,43.976C385.656,369.257,383.405,369.951,381.42,369.951z"/>
				<path style="fill:#EBEBEB;" d="M471.109,290.494L471.109,290.494c4.294,0,6.962,3.445,6.962,8.99
					c0,8.734-6.38,19.523-14.222,24.051l-76.168,43.976c-2.198,1.269-4.363,1.94-6.26,1.94c-2.051,0-3.774-0.778-4.982-2.249
					c-1.295-1.578-1.98-3.909-1.98-6.742c0-8.734,6.381-19.523,14.223-24.051l76.167-43.975
					C467.046,291.165,469.211,290.494,471.109,290.494 M471.108,289.494c-2.024,0-4.323,0.667-6.76,2.074l-76.167,43.975
					c-8.131,4.694-14.723,15.85-14.723,24.917c0,6.35,3.232,9.991,7.962,9.991c2.024,0,4.323-0.667,6.76-2.074l76.168-43.976
					c8.131-4.694,14.722-15.85,14.722-24.917C479.071,293.135,475.839,289.494,471.108,289.494L471.108,289.494z"/>
			</g>
		</g>
		<g id="Stars_4_">
			<g>
				<path style="fill:#BA68C8;" d="M400.12,345.355c0.309-0.579,0.255-1.175-0.033-1.338c-0.093-0.053-2.263-1.303-2.546-1.471
					c-0.094-0.056-0.214-0.065-0.355-0.011l-2.339,0.897l-0.771-1.638c-0.044-0.094-0.104-0.159-0.173-0.197
					c-0.322-0.178-2.481-1.435-2.549-1.474c-0.322-0.182-0.856,0.224-1.065,0.908l-1.59,5.212c-0.1,0.329-0.294,0.628-0.518,0.801
					l-3.554,2.741c-0.564,0.435-0.79,1.491-0.381,1.786l2.572,1.858c0.162,0.117,0.236,0.378,0.198,0.698l-0.607,5.07
					c-0.044,0.37,0.056,0.619,0.227,0.717c0.201,0.115,2.381,1.377,2.552,1.475c0.201,0.115,0.499,0.022,0.771-0.326l3.179-4.064
					c0.201-0.256,0.44-0.395,0.641-0.37l3.179,0.393c0.505,0.062,1.095-0.85,0.999-1.544l-0.607-4.369
					c-0.038-0.276,0.036-0.622,0.198-0.927L400.12,345.355z"/>
				<g>
					<path style="opacity:0.15;fill:#FFFFFF;" d="M400.09,344.014c-0.094-0.05-0.214-0.057-0.352-0.006l-3.557,1.364
						c-0.22,0.088-0.415,0.012-0.515-0.201l-0.817-1.741l2.338-0.892c0.138-0.056,0.258-0.05,0.352,0.006
						C397.821,342.714,399.996,343.964,400.09,344.014z"/>
					<path style="opacity:0.15;fill:#FFFFFF;" d="M391.254,347.716c-0.101,0.333-0.295,0.629-0.522,0.805l-3.551,2.74
						c-0.157,0.119-0.289,0.289-0.383,0.478l-2.552-1.477c0.094-0.182,0.226-0.352,0.383-0.478l3.551-2.74
						c0.226-0.17,0.421-0.471,0.522-0.798v-0.006L391.254,347.716z"/>
					<path style="opacity:0.1;" d="M393.925,341.608c-0.32-0.207-0.867,0.201-1.081,0.899l-1.59,5.21l-2.552-1.477l1.59-5.21
						c0.207-0.679,0.742-1.087,1.062-0.905c0.069,0.038,2.225,1.295,2.552,1.471C393.912,341.601,393.919,341.601,393.925,341.608z"
						/>
					<path style="opacity:0.25;" d="M389.368,354.906l-2.526-1.452c-0.006-0.006-0.013-0.019-0.025-0.025l-2.57-1.86
						c-0.295-0.214-0.258-0.817,0-1.307l2.552,1.477c-0.258,0.484-0.295,1.093,0,1.307L389.368,354.906z"/>
					<path style="opacity:0.15;" d="M388.96,360.675c-0.044,0.377,0.063,0.628,0.245,0.723c-0.006,0-0.013,0-0.019-0.006
						c-0.17-0.101-2.351-1.364-2.552-1.477c-0.17-0.1-0.27-0.346-0.226-0.716l0.61-5.072c0.031-0.302-0.031-0.547-0.176-0.672
						l2.526,1.452c0.006,0.006,0.013,0.013,0.019,0.013l0.006,0.006v0.006c0.145,0.126,0.214,0.377,0.176,0.673L388.96,360.675z"/>
				</g>
				<g>
					<path id="XMLID_1150_" style="fill:#BA68C8;" d="M394.076,341.794l1.59,3.377c0.1,0.213,0.294,0.289,0.518,0.203l3.554-1.363
						c0.565-0.216,0.79,0.578,0.382,1.345l-2.572,4.828c-0.162,0.305-0.236,0.651-0.198,0.927l0.607,4.369
						c0.096,0.694-0.494,1.606-0.999,1.544l-3.179-0.393c-0.201-0.025-0.44,0.113-0.641,0.37l-3.179,4.064
						c-0.505,0.646-1.095,0.414-0.999-0.391l0.607-5.07c0.038-0.32-0.036-0.581-0.198-0.698l-2.572-1.858
						c-0.409-0.295-0.183-1.35,0.381-1.786l3.554-2.741c0.224-0.173,0.418-0.473,0.518-0.801l1.59-5.212
						C393.094,341.679,393.824,341.258,394.076,341.794z"/>
					<path id="XMLID_707_" style="opacity:0.5;fill:#FFFFFF;" d="M394.076,341.794l1.59,3.377c0.1,0.213,0.294,0.289,0.518,0.203
						l3.554-1.363c0.565-0.216,0.79,0.578,0.382,1.345l-2.572,4.828c-0.162,0.305-0.236,0.651-0.198,0.927l0.607,4.369
						c0.096,0.694-0.494,1.606-0.999,1.544l-3.179-0.393c-0.201-0.025-0.44,0.113-0.641,0.37l-3.179,4.064
						c-0.505,0.646-1.095,0.414-0.999-0.391l0.607-5.07c0.038-0.32-0.036-0.581-0.198-0.698l-2.572-1.858
						c-0.409-0.295-0.183-1.35,0.381-1.786l3.554-2.741c0.224-0.173,0.418-0.473,0.518-0.801l1.59-5.212
						C393.094,341.679,393.824,341.258,394.076,341.794z"/>
				</g>
			</g>
			<g>
				<path style="fill:#BA68C8;" d="M417.967,335.064c0.309-0.579,0.255-1.175-0.033-1.338c-0.093-0.053-2.263-1.303-2.546-1.471
					c-0.094-0.056-0.214-0.065-0.355-0.011l-2.339,0.897l-0.771-1.638c-0.044-0.094-0.104-0.159-0.173-0.197
					c-0.322-0.178-2.481-1.435-2.549-1.474c-0.322-0.182-0.856,0.224-1.065,0.908l-1.589,5.212c-0.1,0.329-0.294,0.628-0.518,0.801
					l-3.554,2.741c-0.565,0.435-0.79,1.49-0.382,1.786l2.572,1.858c0.162,0.117,0.236,0.378,0.198,0.698l-0.607,5.07
					c-0.044,0.37,0.056,0.619,0.227,0.717c0.201,0.115,2.381,1.377,2.552,1.475c0.201,0.115,0.498,0.022,0.771-0.326l3.179-4.064
					c0.201-0.256,0.44-0.395,0.641-0.37l3.179,0.393c0.505,0.062,1.095-0.85,0.999-1.544l-0.607-4.369
					c-0.038-0.276,0.036-0.622,0.198-0.927L417.967,335.064z"/>
				<g>
					<path style="opacity:0.15;fill:#FFFFFF;" d="M417.938,333.724c-0.094-0.05-0.214-0.057-0.352-0.006l-3.557,1.364
						c-0.22,0.088-0.415,0.013-0.515-0.201l-0.817-1.741l2.338-0.893c0.138-0.056,0.258-0.05,0.352,0.006
						C415.669,332.423,417.844,333.673,417.938,333.724z"/>
					<path style="opacity:0.15;fill:#FFFFFF;" d="M409.102,337.425c-0.101,0.333-0.295,0.629-0.522,0.804l-3.551,2.74
						c-0.157,0.119-0.289,0.289-0.383,0.478l-2.552-1.477c0.094-0.182,0.226-0.352,0.383-0.478l3.551-2.74
						c0.226-0.17,0.421-0.471,0.522-0.798v-0.006L409.102,337.425z"/>
					<path style="opacity:0.1;" d="M411.773,331.317c-0.321-0.207-0.867,0.201-1.081,0.899l-1.59,5.21l-2.552-1.477l1.59-5.21
						c0.207-0.679,0.742-1.087,1.062-0.905c0.069,0.038,2.225,1.295,2.552,1.471C411.76,331.31,411.767,331.31,411.773,331.317z"/>
					<path style="opacity:0.25;" d="M407.216,344.615l-2.526-1.452c-0.006-0.006-0.013-0.019-0.025-0.025l-2.57-1.86
						c-0.295-0.214-0.258-0.817,0-1.307l2.552,1.477c-0.258,0.484-0.295,1.093,0,1.307L407.216,344.615z"/>
					<path style="opacity:0.15;" d="M406.808,350.384c-0.044,0.377,0.063,0.629,0.245,0.723c-0.006,0-0.013,0-0.019-0.006
						c-0.17-0.101-2.35-1.364-2.551-1.477c-0.17-0.1-0.27-0.346-0.226-0.716l0.61-5.072c0.031-0.302-0.031-0.547-0.176-0.672
						l2.526,1.452c0.006,0.006,0.013,0.013,0.019,0.013l0.006,0.006v0.006c0.145,0.126,0.214,0.377,0.176,0.672L406.808,350.384z"/>
				</g>
				<g>
					<path id="XMLID_704_" style="fill:#BA68C8;" d="M411.924,331.503l1.59,3.377c0.1,0.213,0.294,0.289,0.518,0.203l3.554-1.363
						c0.565-0.217,0.79,0.578,0.381,1.345l-2.572,4.828c-0.162,0.305-0.236,0.651-0.198,0.927l0.607,4.369
						c0.096,0.694-0.494,1.606-0.999,1.544l-3.179-0.393c-0.2-0.025-0.44,0.114-0.641,0.37l-3.179,4.064
						c-0.505,0.646-1.095,0.415-0.999-0.391l0.607-5.07c0.038-0.32-0.036-0.581-0.198-0.698l-2.572-1.858
						c-0.409-0.295-0.183-1.35,0.382-1.786l3.554-2.741c0.224-0.173,0.418-0.472,0.518-0.801l1.59-5.212
						C410.942,331.388,411.672,330.967,411.924,331.503z"/>
					<path id="XMLID_410_" style="opacity:0.5;fill:#FFFFFF;" d="M411.924,331.503l1.59,3.377c0.1,0.213,0.294,0.289,0.518,0.203
						l3.554-1.363c0.565-0.217,0.79,0.578,0.381,1.345l-2.572,4.828c-0.162,0.305-0.236,0.651-0.198,0.927l0.607,4.369
						c0.096,0.694-0.494,1.606-0.999,1.544l-3.179-0.393c-0.2-0.025-0.44,0.114-0.641,0.37l-3.179,4.064
						c-0.505,0.646-1.095,0.415-0.999-0.391l0.607-5.07c0.038-0.32-0.036-0.581-0.198-0.698l-2.572-1.858
						c-0.409-0.295-0.183-1.35,0.382-1.786l3.554-2.741c0.224-0.173,0.418-0.472,0.518-0.801l1.59-5.212
						C410.942,331.388,411.672,330.967,411.924,331.503z"/>
				</g>
			</g>
			<g>
				<path style="fill:#BA68C8;" d="M435.815,324.774c0.309-0.579,0.255-1.175-0.033-1.338c-0.093-0.053-2.263-1.303-2.546-1.472
					c-0.094-0.056-0.214-0.065-0.355-0.011l-2.339,0.897l-0.771-1.638c-0.044-0.094-0.104-0.159-0.173-0.197
					c-0.322-0.178-2.481-1.435-2.549-1.474c-0.322-0.182-0.856,0.224-1.065,0.908l-1.589,5.212c-0.1,0.329-0.294,0.628-0.518,0.801
					l-3.554,2.741c-0.565,0.435-0.79,1.491-0.382,1.786l2.572,1.858c0.162,0.117,0.236,0.378,0.198,0.698l-0.607,5.07
					c-0.044,0.37,0.056,0.619,0.227,0.717c0.201,0.115,2.381,1.377,2.552,1.475c0.201,0.115,0.499,0.022,0.771-0.326l3.179-4.064
					c0.201-0.256,0.44-0.395,0.641-0.37l3.179,0.393c0.505,0.063,1.095-0.85,0.999-1.544l-0.607-4.369
					c-0.038-0.276,0.036-0.622,0.198-0.927L435.815,324.774z"/>
				<g>
					<path style="opacity:0.15;fill:#FFFFFF;" d="M435.786,323.433c-0.094-0.05-0.214-0.056-0.352-0.006l-3.557,1.364
						c-0.22,0.088-0.415,0.012-0.515-0.201l-0.817-1.741l2.338-0.892c0.138-0.057,0.258-0.05,0.352,0.006
						C433.517,322.132,435.692,323.383,435.786,323.433z"/>
					<path style="opacity:0.15;fill:#FFFFFF;" d="M426.95,327.135c-0.101,0.333-0.295,0.628-0.522,0.804l-3.551,2.74
						c-0.157,0.119-0.289,0.289-0.383,0.478l-2.552-1.477c0.094-0.182,0.226-0.352,0.383-0.478l3.551-2.74
						c0.226-0.17,0.421-0.471,0.522-0.798v-0.006L426.95,327.135z"/>
					<path style="opacity:0.1;" d="M429.621,321.026c-0.32-0.207-0.867,0.201-1.081,0.899l-1.59,5.21l-2.552-1.477l1.59-5.21
						c0.207-0.679,0.742-1.087,1.062-0.905c0.069,0.038,2.225,1.295,2.552,1.471C429.608,321.02,429.614,321.02,429.621,321.026z"/>
					<path style="opacity:0.25;" d="M425.064,334.324l-2.526-1.452c-0.006-0.006-0.013-0.019-0.025-0.025l-2.57-1.86
						c-0.295-0.214-0.258-0.817,0-1.307l2.552,1.477c-0.258,0.484-0.295,1.094,0,1.307L425.064,334.324z"/>
					<path style="opacity:0.15;" d="M424.656,340.093c-0.044,0.377,0.063,0.628,0.245,0.723c-0.006,0-0.013,0-0.019-0.006
						c-0.17-0.101-2.35-1.364-2.552-1.477c-0.17-0.101-0.27-0.346-0.226-0.717l0.61-5.072c0.031-0.302-0.031-0.547-0.176-0.672
						l2.526,1.452c0.006,0.006,0.012,0.013,0.019,0.013l0.006,0.006v0.006c0.145,0.126,0.214,0.377,0.176,0.672L424.656,340.093z"/>
				</g>
				<g>
					<path id="XMLID_409_" style="fill:#BA68C8;" d="M429.772,321.213l1.59,3.377c0.1,0.213,0.294,0.289,0.518,0.203l3.554-1.363
						c0.565-0.217,0.79,0.578,0.381,1.345l-2.572,4.828c-0.162,0.305-0.236,0.651-0.198,0.927l0.607,4.369
						c0.096,0.694-0.494,1.607-0.999,1.544l-3.179-0.393c-0.201-0.025-0.44,0.114-0.641,0.37l-3.179,4.064
						c-0.505,0.646-1.095,0.415-0.999-0.391l0.607-5.071c0.038-0.32-0.036-0.581-0.198-0.698l-2.572-1.858
						c-0.409-0.295-0.183-1.35,0.381-1.785l3.554-2.741c0.224-0.173,0.418-0.473,0.518-0.801l1.59-5.212
						C428.79,321.097,429.52,320.676,429.772,321.213z"/>
					<path id="XMLID_395_" style="opacity:0.5;fill:#FFFFFF;" d="M429.772,321.213l1.59,3.377c0.1,0.213,0.294,0.289,0.518,0.203
						l3.554-1.363c0.565-0.217,0.79,0.578,0.381,1.345l-2.572,4.828c-0.162,0.305-0.236,0.651-0.198,0.927l0.607,4.369
						c0.096,0.694-0.494,1.607-0.999,1.544l-3.179-0.393c-0.201-0.025-0.44,0.114-0.641,0.37l-3.179,4.064
						c-0.505,0.646-1.095,0.415-0.999-0.391l0.607-5.071c0.038-0.32-0.036-0.581-0.198-0.698l-2.572-1.858
						c-0.409-0.295-0.183-1.35,0.381-1.785l3.554-2.741c0.224-0.173,0.418-0.473,0.518-0.801l1.59-5.212
						C428.79,321.097,429.52,320.676,429.772,321.213z"/>
				</g>
			</g>
			<g>
				<path style="fill:#BA68C8;" d="M453.663,314.483c0.309-0.579,0.255-1.175-0.033-1.338c-0.093-0.053-2.263-1.303-2.546-1.471
					c-0.094-0.056-0.214-0.065-0.355-0.011l-2.339,0.897l-0.771-1.638c-0.044-0.094-0.104-0.159-0.173-0.197
					c-0.322-0.178-2.481-1.435-2.549-1.474c-0.322-0.182-0.856,0.224-1.065,0.908l-1.59,5.212c-0.1,0.329-0.294,0.628-0.518,0.801
					l-3.554,2.741c-0.564,0.435-0.79,1.491-0.381,1.786l2.572,1.858c0.162,0.117,0.236,0.378,0.198,0.698l-0.607,5.07
					c-0.044,0.37,0.056,0.619,0.227,0.717c0.201,0.116,2.381,1.377,2.552,1.475c0.201,0.115,0.499,0.022,0.771-0.326l3.179-4.064
					c0.201-0.256,0.44-0.395,0.641-0.37l3.179,0.393c0.505,0.062,1.095-0.85,0.999-1.544l-0.607-4.369
					c-0.038-0.276,0.036-0.622,0.198-0.927L453.663,314.483z"/>
				<g>
					<path style="opacity:0.15;fill:#FFFFFF;" d="M453.634,313.142c-0.094-0.05-0.214-0.056-0.352-0.006l-3.557,1.364
						c-0.22,0.088-0.415,0.012-0.515-0.201l-0.817-1.741l2.338-0.892c0.138-0.057,0.258-0.05,0.352,0.006
						C451.365,311.841,453.539,313.092,453.634,313.142z"/>
					<path style="opacity:0.15;fill:#FFFFFF;" d="M444.798,316.844c-0.101,0.333-0.295,0.628-0.522,0.804l-3.551,2.74
						c-0.157,0.119-0.289,0.289-0.383,0.478l-2.552-1.477c0.094-0.182,0.226-0.352,0.383-0.478l3.551-2.74
						c0.226-0.17,0.421-0.471,0.522-0.798v-0.006L444.798,316.844z"/>
					<path style="opacity:0.1;" d="M447.469,310.735c-0.32-0.207-0.867,0.201-1.081,0.899l-1.59,5.21l-2.552-1.477l1.59-5.21
						c0.207-0.679,0.742-1.087,1.062-0.905c0.069,0.038,2.225,1.295,2.552,1.471C447.456,310.729,447.462,310.729,447.469,310.735z"
						/>
					<path style="opacity:0.25;" d="M442.912,324.033l-2.526-1.452c-0.006-0.006-0.013-0.019-0.025-0.025l-2.57-1.86
						c-0.295-0.214-0.258-0.817,0-1.307l2.552,1.477c-0.258,0.484-0.295,1.094,0,1.307L442.912,324.033z"/>
					<path style="opacity:0.15;" d="M442.504,329.803c-0.044,0.377,0.063,0.628,0.245,0.723c-0.006,0-0.013,0-0.019-0.006
						c-0.17-0.101-2.351-1.364-2.552-1.477c-0.17-0.101-0.27-0.346-0.226-0.716l0.61-5.072c0.031-0.302-0.031-0.547-0.176-0.672
						l2.526,1.452c0.006,0.006,0.013,0.013,0.019,0.013l0.006,0.006v0.006c0.145,0.126,0.214,0.377,0.176,0.672L442.504,329.803z"/>
				</g>
				<g>
					<path id="XMLID_394_" style="fill:#BA68C8;" d="M447.62,310.922l1.59,3.376c0.1,0.213,0.294,0.289,0.518,0.203l3.554-1.363
						c0.565-0.217,0.79,0.578,0.381,1.345l-2.572,4.828c-0.162,0.305-0.236,0.651-0.198,0.927l0.607,4.369
						c0.096,0.694-0.494,1.607-0.999,1.544l-3.179-0.393c-0.201-0.025-0.44,0.113-0.641,0.37l-3.179,4.064
						c-0.505,0.646-1.095,0.415-0.999-0.391l0.607-5.07c0.038-0.32-0.036-0.581-0.198-0.698l-2.572-1.858
						c-0.409-0.295-0.183-1.35,0.381-1.786l3.554-2.741c0.224-0.173,0.418-0.473,0.518-0.801l1.59-5.212
						C446.638,310.807,447.367,310.385,447.62,310.922z"/>
					<path id="XMLID_392_" style="opacity:0.5;fill:#FFFFFF;" d="M447.62,310.922l1.59,3.376c0.1,0.213,0.294,0.289,0.518,0.203
						l3.554-1.363c0.565-0.217,0.79,0.578,0.381,1.345l-2.572,4.828c-0.162,0.305-0.236,0.651-0.198,0.927l0.607,4.369
						c0.096,0.694-0.494,1.607-0.999,1.544l-3.179-0.393c-0.201-0.025-0.44,0.113-0.641,0.37l-3.179,4.064
						c-0.505,0.646-1.095,0.415-0.999-0.391l0.607-5.07c0.038-0.32-0.036-0.581-0.198-0.698l-2.572-1.858
						c-0.409-0.295-0.183-1.35,0.381-1.786l3.554-2.741c0.224-0.173,0.418-0.473,0.518-0.801l1.59-5.212
						C446.638,310.807,447.367,310.385,447.62,310.922z"/>
				</g>
			</g>
			<g>
				<path style="fill:#BA68C8;" d="M471.511,304.192c0.309-0.579,0.255-1.175-0.033-1.338c-0.093-0.053-2.263-1.303-2.546-1.471
					c-0.094-0.056-0.214-0.065-0.355-0.011l-2.339,0.897l-0.771-1.638c-0.044-0.094-0.104-0.159-0.173-0.197
					c-0.322-0.178-2.481-1.435-2.549-1.474c-0.322-0.182-0.856,0.224-1.065,0.908l-1.589,5.212c-0.1,0.329-0.294,0.628-0.518,0.801
					l-3.554,2.741c-0.565,0.435-0.79,1.49-0.382,1.786l2.572,1.858c0.162,0.117,0.236,0.378,0.198,0.698l-0.607,5.07
					c-0.044,0.37,0.056,0.619,0.227,0.717c0.201,0.116,2.381,1.377,2.552,1.475c0.201,0.115,0.498,0.022,0.771-0.327l3.179-4.064
					c0.201-0.256,0.44-0.395,0.641-0.37l3.179,0.393c0.505,0.062,1.095-0.85,0.999-1.544l-0.607-4.369
					c-0.038-0.276,0.036-0.622,0.198-0.927L471.511,304.192z"/>
				<g>
					<path style="opacity:0.15;fill:#FFFFFF;" d="M471.482,302.851c-0.094-0.05-0.214-0.057-0.352-0.006l-3.557,1.364
						c-0.22,0.088-0.415,0.013-0.515-0.201l-0.817-1.741l2.338-0.892c0.138-0.057,0.258-0.05,0.352,0.006
						C469.213,301.55,471.387,302.801,471.482,302.851z"/>
					<path style="opacity:0.15;fill:#FFFFFF;" d="M462.646,306.553c-0.101,0.333-0.295,0.628-0.522,0.804l-3.551,2.74
						c-0.157,0.119-0.289,0.289-0.383,0.478l-2.552-1.477c0.094-0.182,0.226-0.352,0.383-0.478l3.551-2.74
						c0.226-0.17,0.421-0.471,0.522-0.798v-0.006L462.646,306.553z"/>
					<path style="opacity:0.1;" d="M465.316,300.444c-0.321-0.207-0.867,0.201-1.081,0.899l-1.59,5.21l-2.552-1.477l1.59-5.21
						c0.207-0.679,0.742-1.087,1.062-0.905c0.069,0.038,2.225,1.295,2.552,1.471C465.304,300.438,465.31,300.438,465.316,300.444z"
						/>
					<path style="opacity:0.25;" d="M460.76,313.743l-2.526-1.452c-0.006-0.006-0.013-0.019-0.025-0.025l-2.57-1.86
						c-0.295-0.214-0.258-0.817,0-1.307l2.552,1.477c-0.258,0.484-0.295,1.094,0,1.307L460.76,313.743z"/>
					<path style="opacity:0.15;" d="M460.352,319.512c-0.044,0.377,0.063,0.628,0.245,0.723c-0.006,0-0.013,0-0.019-0.006
						c-0.17-0.101-2.35-1.364-2.551-1.477c-0.17-0.1-0.27-0.346-0.226-0.716l0.61-5.072c0.031-0.302-0.031-0.547-0.176-0.672
						l2.526,1.452c0.006,0.006,0.013,0.012,0.019,0.012l0.006,0.006v0.006c0.145,0.126,0.214,0.377,0.176,0.672L460.352,319.512z"/>
				</g>
				<g>
					<path id="XMLID_389_" style="fill:#BA68C8;" d="M465.468,300.631l1.59,3.377c0.1,0.213,0.294,0.289,0.518,0.203l3.554-1.363
						c0.565-0.217,0.79,0.578,0.382,1.345l-2.572,4.828c-0.162,0.304-0.236,0.651-0.198,0.927l0.607,4.369
						c0.096,0.694-0.494,1.606-0.999,1.544l-3.179-0.393c-0.2-0.025-0.44,0.113-0.641,0.37l-3.179,4.064
						c-0.505,0.646-1.095,0.415-0.999-0.391l0.607-5.07c0.038-0.32-0.036-0.581-0.198-0.698l-2.572-1.858
						c-0.409-0.295-0.183-1.35,0.382-1.786l3.554-2.741c0.224-0.173,0.418-0.473,0.518-0.801l1.59-5.212
						C464.486,300.516,465.215,300.095,465.468,300.631z"/>
					<path id="XMLID_387_" style="opacity:0.5;fill:#FFFFFF;" d="M465.468,300.631l1.59,3.377c0.1,0.213,0.294,0.289,0.518,0.203
						l3.554-1.363c0.565-0.217,0.79,0.578,0.382,1.345l-2.572,4.828c-0.162,0.304-0.236,0.651-0.198,0.927l0.607,4.369
						c0.096,0.694-0.494,1.606-0.999,1.544l-3.179-0.393c-0.2-0.025-0.44,0.113-0.641,0.37l-3.179,4.064
						c-0.505,0.646-1.095,0.415-0.999-0.391l0.607-5.07c0.038-0.32-0.036-0.581-0.198-0.698l-2.572-1.858
						c-0.409-0.295-0.183-1.35,0.382-1.786l3.554-2.741c0.224-0.173,0.418-0.473,0.518-0.801l1.59-5.212
						C464.486,300.516,465.215,300.095,465.468,300.631z"/>
				</g>
			</g>
		</g>
	</g>
	<path id="Star_3_" style="fill:#E0E0E0;" d="M478.316,56.964l-7.994,3.425l-1.711,8.527c-0.21,1.046-1.528,1.397-2.23,0.594
		l-5.727-6.544l-8.638,1.008c-1.06,0.124-1.801-1.021-1.255-1.938l4.454-7.469l-3.628-7.904c-0.445-0.97,0.415-2.028,1.455-1.792
		l8.48,1.928l6.396-5.893c0.784-0.723,2.057-0.232,2.154,0.83l0.787,8.661l7.581,4.262
		C479.369,55.182,479.296,56.544,478.316,56.964z"/>
	<path id="Star" style="fill:#E0E0E0;" d="M434.225,42.176c-0.067,0.091-0.15,0.172-0.245,0.242
		c-0.347,0.253-0.799,0.285-1.18,0.086l-4.455-2.342l-4.455,2.343c-0.38,0.2-0.832,0.167-1.178-0.086
		c-0.348-0.253-0.519-0.672-0.446-1.095l0.85-4.961l-3.604-3.513c-0.307-0.299-0.416-0.739-0.284-1.147
		c0.133-0.409,0.481-0.701,0.903-0.762l4.981-0.725l2.227-4.513c0.189-0.383,0.574-0.623,1.003-0.625
		c0.429,0,0.814,0.239,1.004,0.625l2.228,4.513l4.982,0.723c0.425,0.062,0.771,0.354,0.903,0.761
		c0.134,0.409,0.024,0.852-0.283,1.148l-0.001,0.001l-3.603,3.513l0.852,4.961C434.478,41.63,434.403,41.935,434.225,42.176z
		 M419.953,31.793c-0.027,0.036-0.048,0.079-0.063,0.124c-0.051,0.158-0.011,0.32,0.108,0.436l3.866,3.769l-0.913,5.32
		c-0.027,0.163,0.036,0.318,0.169,0.415c0.134,0.097,0.301,0.109,0.447,0.033l4.778-2.513l4.778,2.51
		c0.147,0.077,0.314,0.065,0.447-0.032c0.136-0.095,0.195-0.251,0.169-0.416l-0.913-5.32l3.866-3.769
		c0.11-0.111,0.157-0.278,0.107-0.435c-0.05-0.157-0.179-0.265-0.342-0.288l-5.342-0.776l-2.391-4.842
		c-0.072-0.148-0.215-0.236-0.38-0.237c-0.165,0.001-0.303,0.088-0.381,0.237l-2.388,4.842l-5.343,0.777
		C420.116,31.646,420.018,31.705,419.953,31.793z"/>
</g>
<g id="Speech_Bubbles_1_">
	<g id="Speech_Bubbles">
		<g id="Speech_Bubble_15_">
			<g id="Speech_Bubble_1_">
				<path style="fill:#37474F;" d="M378.544,109c-7.53-4.364-17.885-3.769-29.322,2.834c-23.025,13.293-41.69,45.867-41.69,72.757
					c0,13.53,4.737,23.018,12.371,27.426c1.764,1.019,8.69,4.972,8.684,5.011c-0.757,5.178-2.917,10.644-9.713,14.659
					c-0.435,0.257-0.16,0.68,0.223,0.907c0.159,0.094,10.178,5.876,10.568,6.101c0.156,0.09,0.329,0.148,0.479,0.148
					c10.404,0.017,22.458-6.994,25.812-21.546c1.259-0.593,2.532-1.25,3.821-1.994c23.025-13.293,41.69-45.867,41.69-72.757
					c0-13.532-4.73-23.04-12.362-27.456C387.329,114.061,380.3,110.017,378.544,109z"/>
				<path style="fill:#455A64;" d="M359.778,117.928c-23.024,13.293-41.69,45.867-41.69,72.757c0,18.242,8.596,29.169,21.311,30.167
					c-0.475,5.802-2.168,12.321-9.969,16.93c-0.616,0.364,0.191,1.061,0.714,1.062c10.404,0.017,22.458-6.994,25.811-21.546
					c1.259-0.593,2.532-1.25,3.821-1.994c23.024-13.293,41.689-45.867,41.689-72.757
					C401.467,115.657,382.802,104.635,359.778,117.928z"/>
				<path style="fill:#263238;" d="M329.431,237.782c-0.377,0.234-0.208,0.585,0.104,0.831c-1.247-0.715-10.29-5.925-10.433-6.016
					c-0.39-0.234-0.663-0.65-0.221-0.91c6.796-4.015,8.952-9.485,9.706-14.656l1.156,0.676l1.052,0.624
					c2.573,1.429,5.457,2.274,8.601,2.521C338.929,226.647,337.227,233.169,329.431,237.782z"/>
			</g>
			<g>
				<g>
					<path style="fill:#FAFAFA;" d="M355.384,194.892c-1.116-0.787-1.672-2.208-1.672-4.262c0-2.052,0.547-4.084,1.641-6.092
						c1.095-2.01,2.492-3.506,4.194-4.488c1.702-0.982,3.099-1.101,4.193-0.354c1.094,0.747,1.641,2.146,1.641,4.198
						c0,2.054-0.557,4.118-1.672,6.192c-1.114,2.075-2.502,3.591-4.162,4.55C357.885,195.594,356.497,195.681,355.384,194.892z
						 M353.894,140.529l11.305-6.527l-1.885,38.119l-7.535,4.35L353.894,140.529z"/>
				</g>
			</g>
		</g>
		<path style="opacity:0.2;" d="M365.342,211.645c12.28-9.004,22.863-23.264,29.345-38.583
			C382.408,182.066,371.824,196.326,365.342,211.645z"/>
		<g id="Speech_Bubble_16_">
			<g id="Speech_Bubble_13_">
				<path style="fill:#E0E0E0;" d="M443.858,263.754c-4.254,0.045-7.424-2.931-9.414-6.682
					c12.756-15.69,21.385-36.589,21.385-54.867c0-13.555-4.746-23.073-12.401-27.479c-1.767-1.017-8.783-5.061-10.547-6.08
					c-7.528-4.349-17.874-3.749-29.299,2.848c-23.025,13.293-41.69,45.867-41.69,72.757c0,13.529,4.727,23.036,12.356,27.453
					c1.779,1.03,8.788,5.055,10.527,6.068c7.534,4.391,17.906,3.806,29.365-2.81c2.986-1.724,5.897-3.779,8.706-6.098
					c7.746,6.127,17.188-0.552,20.927-3.749C444.273,264.686,444.328,263.749,443.858,263.754z"/>
				<g>
					<path style="fill:#FAFAFA;" d="M395.689,279.948c-13.934,0-22.589-11.344-22.589-29.604c0-26.64,18.557-59.025,41.365-72.194
						c6.378-3.683,12.477-5.55,18.126-5.55c13.934,0,22.589,11.344,22.589,29.605c0,17.476-8.139,38.342-21.24,54.458l-0.272,0.334
						l0.201,0.38c2.351,4.429,5.76,6.913,9.624,7.023c-0.029,0.08-0.076,0.164-0.143,0.221c-2.661,2.274-7.941,6.09-13.412,6.09
						c-0.001,0-0.001,0-0.002,0c-2.461,0-4.711-0.793-6.688-2.357l-0.412-0.326l-0.405,0.335c-2.835,2.341-5.734,4.372-8.617,6.036
						C407.436,278.082,401.338,279.948,395.689,279.948z"/>
					<path style="fill:#BA68C8;" d="M432.588,171.95l0.002,1.299c13.533,0.001,21.939,11.096,21.939,28.955
						c0,17.333-8.083,38.043-21.094,54.048l-0.543,0.668l0.404,0.761c2.164,4.079,5.208,6.586,8.699,7.215
						c-2.778,2.211-7.367,5.165-12.058,5.165c-2.31,0-4.425-0.746-6.285-2.217l-0.823-0.651l-0.81,0.668
						c-2.808,2.318-5.677,4.328-8.528,5.974c-6.278,3.625-12.268,5.463-17.802,5.463c-13.533,0-21.939-11.095-21.939-28.955
						c0-26.433,18.411-58.566,41.04-71.632c6.278-3.625,12.267-5.463,17.799-5.463V171.95 M432.591,171.95
						c-5.563,0-11.825,1.811-18.451,5.637c-23.025,13.293-41.69,45.868-41.69,72.757c0,19.151,9.47,30.254,23.238,30.254
						c5.563,0,11.826-1.811,18.452-5.637c2.986-1.724,5.897-3.779,8.706-6.098c2.279,1.803,4.707,2.497,7.091,2.497
						c5.719,0,11.197-3.99,13.836-6.246c0.5-0.427,0.556-1.361,0.089-1.361c-0.001,0-0.002,0-0.004,0
						c-0.032,0-0.063,0.001-0.095,0.001c-4.206,0-7.344-2.959-9.319-6.682c12.756-15.69,21.385-36.589,21.385-54.867
						C455.829,183.054,446.358,171.952,432.591,171.95L432.591,171.95z"/>
				</g>
			</g>
			<g>
				<path style="fill:#455A64;" d="M412.025,230.854c0.951-2.386,2.34-5.212,4.163-8.481c1.337-2.392,2.319-4.324,2.947-5.794
					c0.628-1.469,0.941-2.906,0.941-4.311c0-1.998-0.597-3.232-1.792-3.705c-1.195-0.471-2.786-0.134-4.771,1.012
					c-1.904,1.099-3.596,2.602-5.074,4.509c-1.479,1.907-2.725,4.099-3.738,6.574l-7.353-1.508c1.702-4.439,4-8.44,6.898-12.004
					c2.896-3.563,6.33-6.491,10.301-8.783c4.659-2.69,8.396-3.524,11.213-2.504c2.815,1.022,4.223,3.881,4.223,8.582
					c0,2.215-0.273,4.318-0.82,6.307c-0.547,1.992-1.215,3.796-2.006,5.413c-0.79,1.618-1.813,3.546-3.069,5.783
					c-1.499,2.647-2.593,4.778-3.281,6.391c-0.69,1.614-1.034,3.285-1.034,5.012l-9.177,5.298
					C410.596,235.84,411.072,233.241,412.025,230.854z M411.051,256.576c-1.114-0.788-1.671-2.208-1.671-4.262
					c0-2.052,0.547-4.083,1.641-6.093c1.095-2.01,2.491-3.505,4.193-4.487c1.702-0.983,3.1-1.1,4.193-0.354
					c1.095,0.745,1.641,2.145,1.641,4.197c0,2.054-0.557,4.117-1.672,6.192c-1.114,2.076-2.502,3.592-4.163,4.55
					C413.553,257.279,412.165,257.365,411.051,256.576z"/>
			</g>
		</g>
	</g>
</g>
<g id="FAQ_1_">
	<g id="Speech_Bubble_3_">
		<g id="Speech_Bubble_12_">
			<g>
				<path style="fill:#BA68C8;" d="M200.777,185.3l-46,26.635l18.272,31.064c0.398,0.895,1.021,1.544,1.748,1.956
					c2.183,1.237,15.089,8.711,15.802,9.124c2.183,1.264,5.335,0.373,6.171-2.458l19.84-57.18L200.777,185.3z"/>
				<path style="opacity:0.2;" d="M200.777,185.3l-46,26.635l18.272,31.064c0.398,0.895,1.021,1.544,1.748,1.956
					c2.183,1.237,15.089,8.711,15.802,9.124c2.183,1.264,5.335,0.373,6.171-2.458l19.84-57.18L200.777,185.3z"/>
				<path style="fill:#BA68C8;" d="M170.61,221.077l18.273,31.064c1.592,3.578,6.779,3.237,7.888-0.519l19.84-57.18L170.61,221.077z
					"/>
			</g>
			<g>
				<path id="XMLID_355_" style="fill:#BA68C8;" d="M252.103,25.981L78.63,126.13c-2.199,1.269-3.982,4.358-3.982,6.896v120.396
					c0,2.539,1.793,5.61,4.004,6.857l14.264,7.997c2.212,1.248,5.787,1.231,7.986-0.039l173.475-100.149
					c2.199-1.27,3.981-4.357,3.981-6.897V40.796c0-2.539-1.793-5.61-4.004-6.858l-14.266-7.997
					C257.877,24.693,254.301,24.711,252.103,25.981z"/>
				<path id="XMLID_345_" style="opacity:0.3;fill:#FFFFFF;" d="M278.305,40.074c-0.313-2.005-1.949-2.722-3.936-1.582
					L100.91,138.647c-1.103,0.643-2.096,1.728-2.814,2.979l-22.203-12.665c0.718-1.196,1.674-2.226,2.741-2.832L252.112,25.974
					c2.189-1.269,5.756-1.287,7.982-0.037l14.257,7.994C276.356,35.072,278.028,37.702,278.305,40.074z"/>
				<path id="XMLID_304_" style="fill:#BA68C8;" d="M96.92,266.4V146.004c0-2.539,1.783-5.627,3.982-6.897L274.376,38.958
					c2.199-1.27,3.981-0.241,3.981,2.299v120.396c0,2.54-1.783,5.627-3.981,6.897L100.902,268.698
					C98.703,269.969,96.92,268.939,96.92,266.4z"/>
				<path id="XMLID_284_" style="opacity:0.2;" d="M100.902,268.238c-2.119,1.23-5.991,1.274-7.992,0.047l-14.257-8.012
					c-2.207-1.232-4.01-4.303-4.01-6.842V133.025c0-1.324,0.497-2.777,1.27-4.064l22.184,12.665
					c-0.736,1.232-1.177,2.648-1.177,3.917v120.388C96.92,268.257,98.559,269.598,100.902,268.238z"/>
			</g>
		</g>
		<g id="FAQ">
			<g>
				<path style="fill:#E0E0E0;" d="M145.594,170.017l-1.738-1.003c-1.346-0.777-3.005-0.777-4.351,0l-10.563,6.098v-14.448
					l19.564-11.296c1.884-1.088,3.045-3.098,3.045-5.274v-8.103c0-2.176-1.161-4.186-3.046-5.274l0,0
					c-1.884-1.087-4.205-1.087-6.089,0l-27.135,15.667c-3.27,1.888-5.285,5.378-5.285,9.154v75.191c0,2.176,1.161,4.187,3.046,5.274
					l0,0c1.884,1.087,4.205,1.087,6.089,0l6.766-3.906c1.884-1.088,3.045-3.098,3.045-5.274v-29.488l16.652-9.615
					c1.346-0.777,2.176-2.214,2.176-3.768v-10.167C147.771,172.231,146.941,170.794,145.594,170.017z"/>
				<path style="opacity:0.1;" d="M119.713,235.662l-0.58,0.34c-0.94,0.55-2,0.82-3.05,0.82c-1.05,0-2.1-0.27-3.04-0.82
					c-1.89-1.08-3.05-3.1-3.05-5.27v-75.19c0-1.78,0.46-3.48,1.27-4.99l6.09,3.51c-0.82,1.51-1.27,3.22-1.27,4.99v74.49
					C116.083,235.402,118.103,236.582,119.713,235.662z"/>
				<path style="fill:#FAFAFA;" d="M128.943,160.665v21.479l16.624-9.597c0.98-0.566,2.204,0.141,2.204,1.273v10.148
					c0,1.547-0.825,2.976-2.165,3.749l-16.664,9.621v29.496c0,2.17-1.158,4.176-3.038,5.261l-6.16,3.557
					c-1.626,0.938-3.657-0.235-3.657-2.112v-74.485c0-3.776,2.015-7.266,5.285-9.154l26.878-15.519c1.467-0.847,3.3,0.212,3.3,1.905
					v7.834c0,2.16-1.152,4.155-3.022,5.235L128.943,160.665z"/>
			</g>
			<g>
				<path style="fill:#E0E0E0;" d="M186.993,115.242c-0.52-1.77-1.7-3.28-3.3-4.2c-1.12-0.64-2.36-0.96-3.6-0.96
					c-1.24,0-2.48,0.32-3.6,0.96l-6.73,3.89c-1.75,1.01-3,2.71-3.43,4.69l-20.06,91.34c-0.35,1.6,0.38,3.23,1.79,4.05l1.84,1.06
					c1.16,0.67,2.59,0.67,3.75,0l8.11-4.68c1.05-0.61,1.94-1.56,2.66-2.85c0.72-1.28,1.22-2.55,1.49-3.8l3.26-16.66l16.4-9.47
					l1.7,6.77c0.36,1.04,0.87,1.76,1.55,2.16c0.68,0.4,5.41,3.11,6.09,3.52c0.68,0.4,1.58,0.28,2.69-0.36l9.9-5.72L186.993,115.242z
					 M173.663,165.072l3.52-18.12c0.07-0.31,0.14-0.63,0.21-0.96l3.72,14.77L173.663,165.072z"/>
				<path style="opacity:0.1;" d="M194.833,191.012c-0.89-0.53-5.35-3.08-6.01-3.47c-0.68-0.4-1.19-1.12-1.55-2.16l-1.7-6.77
					l4.54-2.62l3.25,12.9C193.713,189.892,194.193,190.592,194.833,191.012z"/>
				<path style="opacity:0.1;" d="M187.203,164.282l-6.09-3.52l-3.72-14.77c0,0,0,0,0-0.01c0-0.02,0.01-0.04,0.01-0.06
					c0.32-1.44,0.64-3.08,0.99-4.9c0.43-2.27,0.83-4.69,1.21-7.28c0.43,2.08,0.86,4,1.29,5.75c0.43,1.75,0.83,3.25,1.21,4.51
					L187.203,164.282z"/>
				<path style="opacity:0.1;" d="M152.473,213.992c-0.24,1.09,0.79,1.97,1.77,1.68l-0.02,0.08l-0.57,0.32
					c-1.16,0.67-2.59,0.67-3.75,0l-1.84-1.06c-1.41-0.82-2.14-2.45-1.79-4.05l20.06-91.34c0.18-0.85,0.53-1.65,1-2.37l6.09,3.52
					c-0.48,0.71-0.82,1.51-1,2.36L152.473,213.992z"/>
				<path style="fill:#FAFAFA;" d="M207.507,184.981l-9.905,5.719c-1.109,0.641-2.004,0.76-2.684,0.357
					c-0.681-0.402-1.197-1.123-1.55-2.161l-3.252-12.907l-20.945,12.092l-3.252,16.663c-0.277,1.247-0.774,2.514-1.493,3.802
					c-0.718,1.287-1.607,2.237-2.665,2.848l-7.174,4.142c-1.076,0.622-2.379-0.331-2.112-1.545l19.947-90.856
					c0.434-1.975,1.678-3.676,3.43-4.688l6.468-3.734c1.969-1.137,4.483-0.131,5.125,2.05L207.507,184.981z M187.204,164.28
					l-5.104-20.278c-0.378-1.255-0.781-2.759-1.211-4.511c-0.429-1.751-0.856-3.667-1.285-5.748
					c-0.378,2.586-0.781,5.012-1.209,7.275c-0.429,2.267-0.832,4.246-1.211,5.938l-5.065,26.034L187.204,164.28z"/>
			</g>
			<g>
				<path style="fill:#E0E0E0;" d="M254.913,150.042c1.71-2.93,3.24-6.04,4.59-9.34c1.35-3.3,2.48-6.7,3.4-10.18
					c0.92-3.48,1.63-7.04,2.12-10.68c0.49-3.64,0.74-7.28,0.74-10.93c0-6.09-0.69-11.38-2.06-15.87c-1.38-4.48-3.31-7.94-5.8-10.38
					c-0.9-0.87-1.85-1.6-2.88-2.18c-1-0.57-5.01-2.9-6-3.47c-1.86-1.09-3.94-1.7-6.23-1.83c-3.52-0.2-7.42,0.94-11.7,3.41
					c-4.29,2.47-8.2,5.83-11.72,10.08c-3.53,4.25-6.55,9.04-9.06,14.37c-2.51,5.33-4.45,11.03-5.82,17.1
					c-1.38,6.07-2.06,12.17-2.06,18.3s0.68,11.44,2.06,15.93c1.37,4.48,3.31,7.95,5.82,10.4c0.9,0.89,1.88,1.62,2.91,2.2
					c0.99,0.56,4.95,2.86,5.93,3.43c1.88,1.1,3.98,1.71,6.31,1.83c3.52,0.17,7.43-0.98,11.72-3.45c1.82-1.05,3.55-2.25,5.19-3.6
					l2.48,2.85c0.37,0.37,0.75,0.67,1.14,0.89c0.7,0.41,5.68,3.27,6.06,3.5c0.71,0.42,1.45,0.6,2.23,0.54
					c1.2-0.09,2.56-0.57,4.07-1.45l10.51-6.06L254.913,150.042z M245.533,124.942c-0.71,3.76-1.72,7.19-3.05,10.28
					c-1.32,3.1-2.94,5.81-4.85,8.13c-1.92,2.33-4.1,4.2-6.54,5.61c-2.27,1.32-4.31,1.97-6.12,1.98c-0.97-1.47-1.74-3.39-2.31-5.77
					c-0.71-2.95-1.06-6.53-1.06-10.76c0-4.2,0.35-8.17,1.06-11.94c0.7-3.76,1.72-7.19,3.04-10.28c1.32-3.09,2.95-5.82,4.88-8.17
					c1.93-2.36,4.13-4.25,6.6-5.68c2.22-1.28,4.22-1.92,6.01-1.92c0.98,1.48,1.76,3.42,2.34,5.82c0.7,2.95,1.06,6.52,1.06,10.71
					C246.593,117.182,246.233,121.172,245.533,124.942z"/>
				<path style="opacity:0.1;" d="M218.903,170.252c-1.27-0.73-4.76-2.76-5.68-3.28c-1.03-0.58-2.01-1.31-2.91-2.2
					c-2.51-2.45-4.45-5.92-5.82-10.4c-1.38-4.49-2.06-9.8-2.06-15.93s0.68-12.23,2.06-18.3c1.27-5.62,3.03-10.92,5.28-15.91
					l6.09,3.52c-2.25,4.98-4.01,10.28-5.28,15.91c-1.38,6.07-2.06,12.17-2.06,18.3c0,6.13,0.68,11.44,2.06,15.92
					c1.37,4.49,3.31,7.96,5.82,10.41C217.183,169.052,218.023,169.712,218.903,170.252z"/>
				<path style="opacity:0.1;" d="M248.573,98.982c-1.32-1.56-2.94-2.41-4.85-2.55c-0.171-0.012-0.35-0.003-0.526-0.003
					c0.978,1.479,1.757,3.416,2.336,5.813c0.7,2.95,1.06,6.52,1.06,10.71c0,4.23-0.36,8.22-1.06,11.99
					c-0.71,3.76-1.72,7.19-3.05,10.28c-1.32,3.1-2.94,5.81-4.85,8.13c-1.92,2.33-4.1,4.2-6.54,5.61c-2.27,1.32-4.31,1.97-6.12,1.98
					c0.22,0.36,0.47,0.69,0.73,1c1.32,1.57,2.95,2.41,4.88,2.51c1.93,0.11,4.13-0.54,6.6-1.97c2.44-1.41,4.62-3.28,6.54-5.61
					c1.91-2.33,3.53-5.04,4.85-8.13c1.33-3.09,2.34-6.52,3.05-10.29c0.7-3.76,1.06-7.76,1.06-11.99c0-4.19-0.36-7.76-1.06-10.71
					C250.913,102.802,249.903,100.542,248.573,98.982z"/>
				<path style="opacity:0.1;" d="M244.103,163.682c-0.57,0.52-1.14,1.02-1.73,1.5l2.48,2.85c0.37,0.37,0.75,0.67,1.14,0.89
					c0.68,0.4,5.37,3.09,6.01,3.47c-0.36-0.22-0.72-0.5-1.06-0.85L244.103,163.682z"/>
				<path style="fill:#FAFAFA;" d="M268.862,165.448l-10.511,6.068c-1.513,0.873-2.867,1.354-4.063,1.444
					c-1.198,0.088-2.313-0.383-3.347-1.416l-6.843-7.865c-2.143,1.975-4.449,3.675-6.919,5.101
					c-4.285,2.474-8.192,3.623-11.721,3.448c-3.528-0.174-6.547-1.487-9.055-3.939c-2.509-2.451-4.449-5.92-5.823-10.405
					c-1.373-4.483-2.06-9.792-2.06-15.924c0-6.131,0.687-12.232,2.06-18.303c1.374-6.07,3.314-11.771,5.823-17.099
					c2.508-5.329,5.526-10.119,9.055-14.367c3.528-4.25,7.436-7.611,11.721-10.085c4.284-2.474,8.185-3.609,11.701-3.409
					c3.516,0.203,6.521,1.523,9.018,3.962c2.494,2.44,4.429,5.903,5.803,10.387c1.374,4.485,2.062,9.774,2.062,15.866
					c0,3.648-0.246,7.292-0.737,10.932c-0.491,3.642-1.198,7.201-2.118,10.682c-0.92,3.48-2.054,6.872-3.402,10.172
					c-1.349,3.303-2.88,6.418-4.594,9.347L268.862,165.448z M221.602,134.407c0,4.23,0.353,7.819,1.059,10.769
					c0.705,2.951,1.72,5.207,3.044,6.771c1.323,1.565,2.948,2.401,4.877,2.511c1.928,0.109,4.127-0.549,6.598-1.976
					c2.444-1.411,4.625-3.282,6.541-5.61c1.914-2.327,3.535-5.038,4.857-8.131c1.323-3.092,2.338-6.52,3.044-10.285
					c0.705-3.764,1.059-7.76,1.059-11.99c0-4.191-0.354-7.762-1.059-10.711c-0.706-2.948-1.721-5.207-3.044-6.771
					c-1.322-1.564-2.943-2.413-4.857-2.551c-1.916-0.136-4.097,0.503-6.541,1.914c-2.471,1.427-4.67,3.317-6.598,5.671
					c-1.929,2.357-3.554,5.08-4.877,8.172c-1.324,3.092-2.339,6.521-3.044,10.285C221.955,126.238,221.602,130.216,221.602,134.407z
					"/>
			</g>
		</g>
	</g>
</g>
</svg>
