<svg width="649" height="650" xmlns="http://www.w3.org/2000/svg" xmlns:xlink="http://www.w3.org/1999/xlink" xml:space="preserve" overflow="hidden"><defs><clipPath id="clip0"><rect x="1416" y="836" width="649" height="650"/></clipPath></defs><g clip-path="url(#clip0)" transform="translate(-1416 -836)"><path d="M1521.99 1105.42C1511.77 1105.42 1503.49 1113.72 1503.49 1123.95L1503.49 1198.05C1503.49 1208.28 1511.77 1216.58 1521.99 1216.58L1959.01 1216.58C1969.23 1216.58 1977.51 1208.28 1977.51 1198.05L1977.51 1123.95C1977.51 1113.72 1969.23 1105.42 1959.01 1105.42ZM1740.5 836C1919.72 836 2065 981.508 2065 1161 2065 1340.49 1919.72 1486 1740.5 1486 1561.28 1486 1416 1340.49 1416 1161 1416 981.508 1561.28 836 1740.5 836Z" fill="#EC3E4A" fill-rule="evenodd"/></g></svg>