<?xml version="1.0" encoding="utf-8"?>
<!-- Generator: Adobe Illustrator 25.0.0, SVG Export Plug-In . SVG Version: 6.00 Build 0)  -->
<svg version="1.1" id="Layer_1" xmlns="http://www.w3.org/2000/svg" xmlns:xlink="http://www.w3.org/1999/xlink" x="0px" y="0px"
	 viewBox="0 0 248 247" style="enable-background:new 0 0 248 247;" xml:space="preserve">
<style type="text/css">
	.st0{clip-path:url(#SVGID_2_);}
	.st1{clip-path:url(#SVGID_4_);}
	.st2{clip-path:url(#SVGID_6_);}
	.st3{fill:#F0B232;}
</style>
<g transform="translate(-635 -214)">
	<g>
		<defs>
			
				<rect id="SVGID_1_" x="635.9" y="205.4" transform="matrix(0.3778 -0.9259 0.9259 0.3778 165.4846 920.5793)" width="263.6" height="263.6"/>
		</defs>
		<clipPath id="SVGID_2_">
			<use xlink:href="#SVGID_1_"  style="overflow:visible;"/>
		</clipPath>
		<g class="st0">
			<g>
				<defs>
					
						<rect id="SVGID_3_" x="635.9" y="205.4" transform="matrix(0.3778 -0.9259 0.9259 0.3778 165.4846 920.5793)" width="263.6" height="263.6"/>
				</defs>
				<clipPath id="SVGID_4_">
					<use xlink:href="#SVGID_3_"  style="overflow:visible;"/>
				</clipPath>
				<g class="st1">
					<g>
						<defs>
							
								<rect id="SVGID_5_" x="610.3" y="176.1" transform="matrix(0.3778 -0.9259 0.9259 0.3778 167.1326 927.2129)" width="326.3" height="326.3"/>
						</defs>
						<clipPath id="SVGID_6_">
							<use xlink:href="#SVGID_5_"  style="overflow:visible;"/>
						</clipPath>
						<g class="st2">
							<path class="st3" d="M843.8,238.8c-10.2-10-21.7-18-33.5-24c24.4,48.1,16.7,108.5-23.5,149.4c-40.2,40.9-100.7,48.9-149,25.1
								c6.1,12,14.3,23.5,24.2,33.4c50.8,50.1,132.4,49.6,182.5-1.1C894.6,370.7,894.4,289.2,843.8,238.8z"/>
						</g>
					</g>
				</g>
			</g>
		</g>
	</g>
</g>
</svg>
